<svg xmlns="http://www.w3.org/2000/svg" viewBox="-50 -50 1100 1100">
  <g >
    <g>
      <line x1="771.91" y1="904.8" x2="184.12" y2="95.79" style="fill: none;stroke: #231f20;stroke-miterlimit: 10"/>
      <line x1="953.54" y1="654.8" x2="2.49" y2="345.79" style="fill: none;stroke: #231f20;stroke-miterlimit: 10"/>
      <line x1="953.54" y1="345.79" x2="2.49" y2="654.8" style="fill: none;stroke: #231f20;stroke-miterlimit: 10"/>
      <line x1="771.91" y1="95.79" x2="184.12" y2="904.8" style="fill: none;stroke: #231f20;stroke-miterlimit: 10"/>
      <line x1="478.01" y1="0.3" x2="478.01" y2="1000" style="fill: none;stroke: #231f20;stroke-miterlimit: 10"/>
      <circle id="center-circle" cx="478.01" cy="500.29" r="150" />
      <path d="M413.69,474.77c0-55.1,88.2-55.74,88.2-55.74s91.84,0,91.84,55.1H612.1l-36.74,36.74-36.74-36.74h24.15c0-36.73-60.88-36.73-60.88-36.73s-69.83.64-69.83,37.37Z" transform="translate(-21.99 0.3)" fill="#fff"/><path d="M584.5,524.31c0,55.1-86.29,56.36-86.29,56.36s-91.84,0-91.84-55.1H388l36.74-36.74,36.73,36.74H437.39c0,36.74,60.82,36.74,60.82,36.74s67.92-1.26,67.92-38Z" transform="translate(-21.99 0.3)" fill="#fff"/>
      <circle id="center-circle-interactive" cx="478.01" cy="500.29" r="150" />

    </g>
  </g>
  <g id="circle0" class="viz-circle" data-circle="0">
    <circle cx="478.01" cy="100" r="100"/>
  </g>
  <g id="circle1" class="viz-circle" data-circle="1">
    <circle cx="727.85" cy="156.43" r="75"/>
  </g>
  <g id="circle2" class="viz-circle" data-circle="2">
    <circle cx="894.21" cy="365.2" r="62.5" />
  </g>
  <g id="circle3" class="viz-circle" data-circle="3">
    <circle cx="900.74" cy="637.65" r="55"/>
  </g>
  <g id="circle4" class="viz-circle" data-circle="4">
    <circle cx="743.08" cy="863.95" r="50"/>
  </g>
  <g id="circle5" class="viz-circle" data-circle="5">
    <circle cx="478.01" cy="952.83" r="47.5"/>
  </g>
  <g id="circle6" class="viz-circle" data-circle="6">
    <circle cx="210.99" cy="867.36" r="46.25"/>
  </g>
  <g id="circle7" class="viz-circle" data-circle="7">
    <circle cx="45.51" cy="640.82" r="45.5"/>
  </g>
  <g id="circle8" class="viz-circle" data-circle="8">
    <circle cx="67.18" cy="359.63" r="45" transform="translate(-285.24 202.89) rotate(-54)"/>
  </g>
  <g id="circle9" class="viz-circle" data-circle="9">
    <circle cx="232.28" cy="131.51" r="44.5" transform="matrix(0.95, -0.31, 0.31, 0.95, -51.26, 78.51)"/>
  </g>
  <g id="numbers">
    <g>
      <path d="M464.44,75.21V46.81l23.2-17.4h26.2v138h-26.2v-109Z" transform="translate(-21.99 0.3)" style="fill: #fff"/>
      <path d="M754.41,146.76q5.7-7.65,5.7-14.55v-2.1q0-5.4-2.93-8.55a10.22,10.22,0,0,0-7.87-3.15,9.77,9.77,0,0,0-7.8,3.3q-2.85,3.3-2.85,9.15v2.4h-19v-3.6a28,28,0,0,1,3.68-14.4,25.63,25.63,0,0,1,10.57-9.9,34.56,34.56,0,0,1,16.2-3.6,32.32,32.32,0,0,1,15.82,3.75,26.77,26.77,0,0,1,10.5,10,27.18,27.18,0,0,1,3.68,13.95v2.55a31.76,31.76,0,0,1-2.4,12.45,52.72,52.72,0,0,1-7,11.7l-25.8,33.45h35.25v17.25h-60v-15.6Z" transform="translate(-21.99 0.3)" style="fill: #fff"/>
      <path d="M889.89,387v-2.63h15.25v1.88q0,4.5,2.57,6.81t7.43,2.31a9.34,9.34,0,0,0,7.32-3,11.73,11.73,0,0,0,2.68-8.12V382c0-3.75-.95-6.63-2.87-8.63s-4.71-3-8.38-3h-4.37V356.49h4.25a9.71,9.71,0,0,0,7.37-2.75,10.62,10.62,0,0,0,2.63-7.63v-1.87q0-4.75-2.44-7.44a8.57,8.57,0,0,0-6.69-2.69,9,9,0,0,0-6.75,2.44,9.17,9.17,0,0,0-2.37,6.69v2.12h-15v-2.12q0-10.87,6.56-16.94t18.19-6.06q11.37,0,17.87,6.18t6.5,16.57v1.87A19.35,19.35,0,0,1,937,354.92a18.9,18.9,0,0,1-7.5,7.07,17.32,17.32,0,0,1,8.56,7.5A24.46,24.46,0,0,1,941,381.86v2.38a26,26,0,0,1-3.25,13.25,22.09,22.09,0,0,1-9.13,8.68,28.11,28.11,0,0,1-13.25,3.07q-12.12,0-18.81-5.82T889.89,387Z" transform="translate(-21.99 0.3)" style="fill: #fff"/>
      <path d="M941.38,662.49v12.1H927v-12.1h-29V649.84l21.67-51.15H934l-21.67,51.15H927V632h14.42v17.82h6.16v12.65Z" transform="translate(-21.99 0.3)" style="fill: #fff"/>
      <path d="M745.22,881.61v-1.5h12v.6a6.4,6.4,0,0,0,2,5,7.92,7.92,0,0,0,5.5,1.8,6.63,6.63,0,0,0,5.65-2.45q1.85-2.46,1.85-7.15v-5.2q0-4.9-1.85-7.25t-5.75-2.36a7.26,7.26,0,0,0-7.1,4.7h-11.3V828.5h37.3v11.2h-26v15.6a15.21,15.21,0,0,1,9.8-3.2q8.7,0,13.15,5.15T784.92,872v6.51q0,9.5-5.35,14.8t-14.85,5.3q-9,0-14.25-4.5T745.22,881.61Z" transform="translate(-21.99 0.3)" style="fill: #fff"/>
      <path d="M479.77,966.36v-3a24.83,24.83,0,0,1,1.09-7.41,52.15,52.15,0,0,1,3.18-7.69l15-29.17h13.11l-13.58,26.51a11.22,11.22,0,0,1,4.75-.95q7.69,0,12.3,4.89t4.61,13.35v3q0,9.3-5.56,14.53T500,985.74q-9.5,0-14.87-5.13T479.77,966.36Zm28,.19V963.6a8.88,8.88,0,0,0-2.09-6.31,7.42,7.42,0,0,0-5.7-2.24,7.26,7.26,0,0,0-5.65,2.24,8.86,8.86,0,0,0-2,6.22v3.13a9.07,9.07,0,0,0,2,6.27,7.19,7.19,0,0,0,5.65,2.28,7.34,7.34,0,0,0,5.7-2.28A9.08,9.08,0,0,0,507.79,966.55Z" transform="translate(-21.99 0.3)" style="fill: #fff"/>
      <path d="M251.34,845.56l-19.43,53.27H219.7l19.8-53.27H214.62V835h36.72Z" transform="translate(-21.99 0.3)" style="fill: #fff"/>
      <path d="M50.51,663.69A18.44,18.44,0,0,1,48,654V652a15.93,15.93,0,0,1,2-7.87,14.71,14.71,0,0,1,5.65-5.69A12.93,12.93,0,0,1,51,633.52a14.45,14.45,0,0,1-1.77-7.23v-1.64a17,17,0,0,1,2.23-8.56,16.39,16.39,0,0,1,6.32-6.23,19.23,19.23,0,0,1,9.65-2.32,19.46,19.46,0,0,1,9.69,2.32,16,16,0,0,1,6.32,6.23,17.23,17.23,0,0,1,2.19,8.56v1.64a14.25,14.25,0,0,1-1.82,7.18,13.43,13.43,0,0,1-4.64,4.92,15,15,0,0,1,5.59,5.78,15.76,15.76,0,0,1,2,7.69V654a18.7,18.7,0,0,1-2.5,9.74,16.6,16.6,0,0,1-6.92,6.41,21.72,21.72,0,0,1-10,2.23,21.43,21.43,0,0,1-9.92-2.23A16.53,16.53,0,0,1,50.51,663.69Zm24.7-9.83v-2.19a8.27,8.27,0,0,0-2.14-5.91,8.18,8.18,0,0,0-11.33,0,8.21,8.21,0,0,0-2.18,5.91v2.19a8.71,8.71,0,0,0,2.09,6,7.34,7.34,0,0,0,5.74,2.32A7.44,7.44,0,0,0,73.07,660,8.53,8.53,0,0,0,75.21,653.86Zm-1.09-27.48v-1.73a7,7,0,0,0-1.87-5,6.92,6.92,0,0,0-9.73,0,7,7,0,0,0-1.87,5v1.73a7.54,7.54,0,0,0,1.82,5.27,7,7,0,0,0,9.83,0A7.61,7.61,0,0,0,74.12,626.38Z" transform="translate(-21.99 0.3)" style="fill: #fff"/>
      <path d="M63.39,365.42q-7.29,0-11.66-4.64t-4.36-12.64v-2.88q0-8.82,5.26-13.77t13.91-4.95q9,0,14.08,4.86t5.09,13.5v2.79a23.63,23.63,0,0,1-1,7,48.16,48.16,0,0,1-3,7.34L67.44,389.62H55l12.87-25.1A10.76,10.76,0,0,1,63.39,365.42ZM73.83,347.6v-3a8.58,8.58,0,0,0-1.94-5.94,6.81,6.81,0,0,0-5.35-2.16,7,7,0,0,0-5.4,2.16,8.59,8.59,0,0,0-2,6v2.79a8.41,8.41,0,0,0,2,6,7,7,0,0,0,5.4,2.12,6.89,6.89,0,0,0,5.35-2.12A8.4,8.4,0,0,0,73.83,347.6Z" transform="translate(-21.99 0.3)" style="fill: #fff"/>
      <g>
        <path d="M197.91,120.59V108l10.33-7.74H219.9v61.41H208.24V113.11Z" transform="translate(-21.99 0.3)" style="fill: #fff"/>
        <path d="M230.13,141.42V119.7q0-10.07,4.67-15.27t13.66-5.2q9.34,0,13.85,5.16t4.49,15.31v21.72q0,10.5-4.49,15.84t-13.85,5.34q-9.35,0-13.84-5.3T230.13,141.42Zm25-1v-19q0-6.58-1.38-9.26c-.92-1.78-2.68-2.67-5.3-2.67s-4.36.89-5.25,2.67-1.33,4.87-1.33,9.26v19q0,6.59,1.38,9.3t5.2,2.71c2.62,0,4.38-.9,5.3-2.71S255.14,144.83,255.14,140.44Z" transform="translate(-21.99 0.3)" style="fill: #fff"/>
      </g>
    </g>
  </g>
  <g id="interactiveCircles">
    <g data-circle="0">
        <circle cx="478.01" cy="100" r="100"/>
    </g>
    <g data-circle="1">
        <circle cx="727.85" cy="156.43" r="75"/>
    </g>
    <g data-circle="2">
        <circle cx="894.21" cy="365.2" r="62.5" />
    </g>
    <g data-circle="3">
        <circle cx="900.74" cy="637.65" r="55"/>
    </g>
    <g data-circle="4">
        <circle cx="743.08" cy="863.95" r="50"/>
    </g>
    <g data-circle="5">
        <circle cx="478.01" cy="952.83" r="47.5"/>
    </g>
    <g data-circle="6">
        <circle cx="210.99" cy="867.36" r="46.25"/>
    </g>
    <g data-circle="7">
        <circle cx="45.51" cy="640.82" r="45.5"/>
    </g>
    <g data-circle="8">
        <circle cx="67.18" cy="359.63" r="45" transform="translate(-285.24 202.89) rotate(-54)"/>
    </g>
    <g data-circle="9">
        <circle cx="232.28" cy="131.51" r="44.5" transform="matrix(0.95, -0.31, 0.31, 0.95, -51.26, 78.51)"/>
    </g>
  </g>
</svg>
