<svg id="Layer_1" data-name="Layer 1" xmlns="http://www.w3.org/2000/svg" viewBox="0 0 288 216"><defs><style>.cls-1{fill:#134b5f;}.cls-2{fill:#f68e69;}</style></defs><path class="cls-1" d="M12.88,16.2H10.15V10.12H5.39V16.2H2.67V1.85H5.39v5.9h4.76V1.85h2.73Z"/><path class="cls-1" d="M20.39,1.85a5.2,5.2,0,0,1,3.77,1.33c.93.88,1.39,2.34,1.39,4.36v2.94c0,2-.47,3.48-1.42,4.37a5.3,5.3,0,0,1-3.82,1.35h-5V1.85ZM22.21,13a4.24,4.24,0,0,0,.61-2.55V7.69A4.57,4.57,0,0,0,22.22,5a2.14,2.14,0,0,0-1.85-.82H18.06v9.6h2.31A2.16,2.16,0,0,0,22.21,13Z"/><path class="cls-1" d="M27.11,11.83h2.58a2.41,2.41,0,0,0,.76,1.67,2.84,2.84,0,0,0,1.82.49q2.31,0,2.31-1.89a1.76,1.76,0,0,0-.46-1.3,2.68,2.68,0,0,0-1.46-.61L31.31,10q-3.89-.65-3.89-4A4,4,0,0,1,28.74,2.8a5.14,5.14,0,0,1,3.51-1.16,4.82,4.82,0,0,1,3.36,1.12A4.6,4.6,0,0,1,37,5.92H34.39a2.11,2.11,0,0,0-.6-1.52,2.31,2.31,0,0,0-1.58-.47,2.36,2.36,0,0,0-1.61.48,1.74,1.74,0,0,0-.54,1.35,1.52,1.52,0,0,0,.48,1.18,3.08,3.08,0,0,0,1.5.63l1.52.27q3.7.66,3.7,4a4.07,4.07,0,0,1-1.38,3.31,5.72,5.72,0,0,1-3.74,1.14,5.16,5.16,0,0,1-3.59-1.15A4.72,4.72,0,0,1,27.11,11.83Z"/><path class="cls-1" d="M42.07,1.85V16.2H39.34V1.85Z"/><path class="cls-1" d="M49.22,7.36c0-3.82,1.76-5.72,5.26-5.72a5.38,5.38,0,0,1,3.75,1.25A4.46,4.46,0,0,1,59.62,6.4v.15H56.9V6.42a2.37,2.37,0,0,0-.64-1.75A2.4,2.4,0,0,0,54.46,4a2.2,2.2,0,0,0-1.9.81A4.65,4.65,0,0,0,52,7.5v3.1a4.16,4.16,0,0,0,.61,2.54,2.28,2.28,0,0,0,1.93.79,2.36,2.36,0,0,0,1.77-.63,2.31,2.31,0,0,0,.62-1.7v-.17h2.68v.15a4.52,4.52,0,0,1-1.37,3.54,5.41,5.41,0,0,1-3.77,1.24c-3.48,0-5.22-1.9-5.22-5.72Z"/><path class="cls-1" d="M63.87,13.41,63,16.2H60.12l5.1-14.35h2.22L72.56,16.2H69.67l-.87-2.79Zm2.45-7.78-1.73,5.51h3.48Z"/><path class="cls-1" d="M83.94,6.36a4.19,4.19,0,0,1-1.26,3.19,4.77,4.77,0,0,1-3.44,1.2H76.6V16.2H73.87V1.85h5.37a4.77,4.77,0,0,1,3.44,1.2A4.38,4.38,0,0,1,83.94,6.36Zm-2.72,0a2.15,2.15,0,0,0-.56-1.59,2.07,2.07,0,0,0-1.55-.55H76.6V8.36h2.51a2.19,2.19,0,0,0,1.54-.52A1.91,1.91,0,0,0,81.22,6.36Z"/><path class="cls-1" d="M85,11.83h2.58a2.41,2.41,0,0,0,.76,1.67,2.84,2.84,0,0,0,1.82.49q2.31,0,2.31-1.89A1.72,1.72,0,0,0,92,10.8a2.68,2.68,0,0,0-1.46-.61L89.16,10q-3.89-.65-3.89-4A4,4,0,0,1,86.59,2.8,5.14,5.14,0,0,1,90.1,1.64a4.82,4.82,0,0,1,3.36,1.12,4.6,4.6,0,0,1,1.4,3.16H92.24a2.11,2.11,0,0,0-.6-1.52,2.9,2.9,0,0,0-3.18,0,1.71,1.71,0,0,0-.55,1.35,1.52,1.52,0,0,0,.48,1.18,3.08,3.08,0,0,0,1.5.63l1.52.27q3.7.66,3.7,4a4.07,4.07,0,0,1-1.38,3.31A5.7,5.7,0,0,1,90,16.32a5.2,5.2,0,0,1-3.59-1.15A4.72,4.72,0,0,1,85,11.83Z"/><path class="cls-1" d="M102.37,4.22v12H99.63v-12H96V1.85H106V4.22Z"/><path class="cls-1" d="M106.57,7.36c0-3.82,1.74-5.72,5.22-5.72A5.21,5.21,0,0,1,115.58,3c.93.89,1.39,2.35,1.39,4.38v3.28c0,2-.47,3.49-1.42,4.38a5.35,5.35,0,0,1-3.84,1.34c-3.42,0-5.14-1.9-5.14-5.72Zm7.68,3.24V7.5a4.57,4.57,0,0,0-.6-2.65A2.15,2.15,0,0,0,111.79,4a2.19,2.19,0,0,0-1.89.8,4.63,4.63,0,0,0-.58,2.67v3.1a4.32,4.32,0,0,0,.58,2.55,2.62,2.62,0,0,0,3.75,0A4.27,4.27,0,0,0,114.25,10.6Z"/><path class="cls-1" d="M129.77,16.2H127l-5.28-9v9H119V1.85h2.72l5.28,9v-9h2.73Z"/><path class="cls-1" d="M135,7.77h5.45v2.37H135v3.68h6.38V16.2h-9.11V1.85h9.11V4.22H135Z"/><path class="cls-2" d="M156.88,16.2h-2.73V10.12h-4.76V16.2h-2.72V1.85h2.72v5.9h4.76V1.85h2.73Z"/><path class="cls-2" d="M164.39,1.85a5.2,5.2,0,0,1,3.77,1.33c.93.88,1.39,2.34,1.39,4.36v2.94c0,2-.47,3.48-1.42,4.37a5.3,5.3,0,0,1-3.82,1.35h-5V1.85ZM166.21,13a4.24,4.24,0,0,0,.61-2.55V7.69a4.57,4.57,0,0,0-.6-2.65,2.14,2.14,0,0,0-1.85-.82h-2.31v9.6h2.31A2.16,2.16,0,0,0,166.21,13Z"/><path class="cls-2" d="M171.11,11.83h2.58a2.41,2.41,0,0,0,.76,1.67,2.84,2.84,0,0,0,1.82.49q2.31,0,2.31-1.89a1.76,1.76,0,0,0-.46-1.3,2.68,2.68,0,0,0-1.46-.61L175.31,10q-3.88-.65-3.89-4a4,4,0,0,1,1.32-3.16,5.14,5.14,0,0,1,3.51-1.16,4.82,4.82,0,0,1,3.36,1.12A4.6,4.6,0,0,1,181,5.92h-2.62a2.11,2.11,0,0,0-.6-1.52,2.31,2.31,0,0,0-1.58-.47,2.36,2.36,0,0,0-1.61.48,1.74,1.74,0,0,0-.54,1.35,1.52,1.52,0,0,0,.48,1.18,3.08,3.08,0,0,0,1.5.63l1.52.27q3.7.66,3.7,4a4.07,4.07,0,0,1-1.38,3.31,5.72,5.72,0,0,1-3.74,1.14,5.16,5.16,0,0,1-3.59-1.15A4.72,4.72,0,0,1,171.11,11.83Z"/><path class="cls-2" d="M186.07,1.85V16.2h-2.73V1.85Z"/><path class="cls-2" d="M193.22,7.36c0-3.82,1.76-5.72,5.26-5.72a5.38,5.38,0,0,1,3.75,1.25,4.46,4.46,0,0,1,1.39,3.51v.15H200.9V6.42a2.37,2.37,0,0,0-.64-1.75,2.4,2.4,0,0,0-1.8-.64,2.2,2.2,0,0,0-1.9.81A4.65,4.65,0,0,0,196,7.5v3.1a4.16,4.16,0,0,0,.61,2.54,2.28,2.28,0,0,0,1.93.79,2.36,2.36,0,0,0,1.77-.63,2.31,2.31,0,0,0,.62-1.7v-.17h2.68v.15a4.52,4.52,0,0,1-1.37,3.54,5.41,5.41,0,0,1-3.77,1.24c-3.48,0-5.22-1.9-5.22-5.72Z"/><path class="cls-2" d="M207.87,13.41,207,16.2h-2.87l5.1-14.35h2.22l5.12,14.35h-2.89l-.87-2.79Zm2.45-7.78-1.73,5.51h3.48Z"/><path class="cls-2" d="M227.94,6.36a4.19,4.19,0,0,1-1.26,3.19,4.77,4.77,0,0,1-3.44,1.2H220.6V16.2h-2.73V1.85h5.37a4.77,4.77,0,0,1,3.44,1.2A4.38,4.38,0,0,1,227.94,6.36Zm-2.72,0a2.15,2.15,0,0,0-.56-1.59,2.07,2.07,0,0,0-1.55-.55H220.6V8.36h2.51a2.19,2.19,0,0,0,1.54-.52A1.91,1.91,0,0,0,225.22,6.36Z"/><path class="cls-2" d="M229,11.83h2.58a2.41,2.41,0,0,0,.76,1.67,2.84,2.84,0,0,0,1.82.49q2.31,0,2.31-1.89a1.72,1.72,0,0,0-.46-1.3,2.68,2.68,0,0,0-1.46-.61L233.16,10q-3.89-.65-3.89-4a4,4,0,0,1,1.32-3.16,5.14,5.14,0,0,1,3.51-1.16,4.82,4.82,0,0,1,3.36,1.12,4.6,4.6,0,0,1,1.4,3.16h-2.62a2.11,2.11,0,0,0-.6-1.52,2.9,2.9,0,0,0-3.18,0,1.71,1.71,0,0,0-.55,1.35,1.52,1.52,0,0,0,.48,1.18,3.08,3.08,0,0,0,1.5.63l1.52.27q3.71.66,3.7,4a4.07,4.07,0,0,1-1.38,3.31A5.7,5.7,0,0,1,234,16.32a5.2,5.2,0,0,1-3.59-1.15A4.72,4.72,0,0,1,229,11.83Z"/><path class="cls-2" d="M246.37,4.22v12h-2.74v-12H240V1.85H250V4.22Z"/><path class="cls-2" d="M250.57,7.36c0-3.82,1.74-5.72,5.22-5.72A5.21,5.21,0,0,1,259.58,3c.93.89,1.39,2.35,1.39,4.38v3.28c0,2-.47,3.49-1.42,4.38a5.35,5.35,0,0,1-3.84,1.34c-3.42,0-5.14-1.9-5.14-5.72Zm7.68,3.24V7.5a4.57,4.57,0,0,0-.6-2.65A2.15,2.15,0,0,0,255.79,4a2.19,2.19,0,0,0-1.89.8,4.63,4.63,0,0,0-.58,2.67v3.1a4.32,4.32,0,0,0,.58,2.55,2.62,2.62,0,0,0,3.75,0A4.27,4.27,0,0,0,258.25,10.6Z"/><path class="cls-2" d="M273.77,16.2H271l-5.28-9v9H263V1.85h2.72l5.28,9v-9h2.73Z"/><path class="cls-2" d="M279,7.77h5.45v2.37H279v3.68h6.38V16.2h-9.11V1.85h9.11V4.22H279Z"/><path class="cls-2" d="M12.88,34.2H10.15V28.12H5.39V34.2H2.67V19.85H5.39v5.9h4.76v-5.9h2.73Z"/><path class="cls-2" d="M20.39,19.85a5.2,5.2,0,0,1,3.77,1.33c.93.88,1.39,2.34,1.39,4.36v2.94c0,2-.47,3.48-1.42,4.37a5.3,5.3,0,0,1-3.82,1.35h-5V19.85ZM22.21,31a4.24,4.24,0,0,0,.61-2.55V25.69a4.57,4.57,0,0,0-.6-2.65,2.14,2.14,0,0,0-1.85-.82H18.06v9.6h2.31A2.16,2.16,0,0,0,22.21,31Z"/><path class="cls-2" d="M27.11,29.83h2.58a2.41,2.41,0,0,0,.76,1.67,2.84,2.84,0,0,0,1.82.49q2.31,0,2.31-1.89a1.76,1.76,0,0,0-.46-1.3,2.68,2.68,0,0,0-1.46-.61L31.31,28q-3.89-.64-3.89-4a4,4,0,0,1,1.32-3.16,5.14,5.14,0,0,1,3.51-1.16,4.82,4.82,0,0,1,3.36,1.12A4.6,4.6,0,0,1,37,23.92H34.39a2.11,2.11,0,0,0-.6-1.52,2.31,2.31,0,0,0-1.58-.47,2.36,2.36,0,0,0-1.61.48,1.74,1.74,0,0,0-.54,1.35,1.52,1.52,0,0,0,.48,1.18,3.08,3.08,0,0,0,1.5.63l1.52.27q3.7.66,3.7,4a4.07,4.07,0,0,1-1.38,3.31,5.72,5.72,0,0,1-3.74,1.14,5.16,5.16,0,0,1-3.59-1.15A4.72,4.72,0,0,1,27.11,29.83Z"/><path class="cls-2" d="M42.07,19.85V34.2H39.34V19.85Z"/><path class="cls-2" d="M49.22,25.36c0-3.82,1.76-5.72,5.26-5.72a5.38,5.38,0,0,1,3.75,1.25,4.46,4.46,0,0,1,1.39,3.51v.15H56.9v-.13a2.37,2.37,0,0,0-.64-1.75,2.4,2.4,0,0,0-1.8-.64,2.2,2.2,0,0,0-1.9.81A4.65,4.65,0,0,0,52,25.5v3.1a4.16,4.16,0,0,0,.61,2.54,2.28,2.28,0,0,0,1.93.79,2.36,2.36,0,0,0,1.77-.63,2.31,2.31,0,0,0,.62-1.7v-.17h2.68v.15a4.52,4.52,0,0,1-1.37,3.54,5.41,5.41,0,0,1-3.77,1.24c-3.48,0-5.22-1.9-5.22-5.72Z"/><path class="cls-2" d="M63.87,31.41,63,34.2H60.12l5.1-14.35h2.22L72.56,34.2H69.67l-.87-2.79Zm2.45-7.78-1.73,5.51h3.48Z"/><path class="cls-2" d="M83.94,24.36a4.19,4.19,0,0,1-1.26,3.19,4.77,4.77,0,0,1-3.44,1.2H76.6V34.2H73.87V19.85h5.37a4.77,4.77,0,0,1,3.44,1.2A4.38,4.38,0,0,1,83.94,24.36Zm-2.72,0a2.15,2.15,0,0,0-.56-1.59,2.07,2.07,0,0,0-1.55-.55H76.6v4.14h2.51a2.19,2.19,0,0,0,1.54-.52A1.91,1.91,0,0,0,81.22,24.36Z"/><path class="cls-2" d="M85,29.83h2.58a2.41,2.41,0,0,0,.76,1.67,2.84,2.84,0,0,0,1.82.49q2.31,0,2.31-1.89A1.72,1.72,0,0,0,92,28.8a2.68,2.68,0,0,0-1.46-.61L89.16,28q-3.89-.64-3.89-4a4,4,0,0,1,1.32-3.16,5.14,5.14,0,0,1,3.51-1.16,4.82,4.82,0,0,1,3.36,1.12,4.6,4.6,0,0,1,1.4,3.16H92.24a2.11,2.11,0,0,0-.6-1.52,2.9,2.9,0,0,0-3.18,0,1.71,1.71,0,0,0-.55,1.35,1.52,1.52,0,0,0,.48,1.18,3.08,3.08,0,0,0,1.5.63l1.52.27q3.7.66,3.7,4a4.07,4.07,0,0,1-1.38,3.31A5.7,5.7,0,0,1,90,34.32a5.2,5.2,0,0,1-3.59-1.15A4.72,4.72,0,0,1,85,29.83Z"/><path class="cls-2" d="M102.37,22.22v12H99.63v-12H96V19.85H106v2.37Z"/><path class="cls-2" d="M106.57,25.36c0-3.82,1.74-5.72,5.22-5.72A5.21,5.21,0,0,1,115.58,21c.93.89,1.39,2.35,1.39,4.38v3.28c0,2-.47,3.49-1.42,4.38a5.35,5.35,0,0,1-3.84,1.34c-3.42,0-5.14-1.9-5.14-5.72Zm7.68,3.24V25.5a4.57,4.57,0,0,0-.6-2.65,2.15,2.15,0,0,0-1.86-.82,2.19,2.19,0,0,0-1.89.8,4.63,4.63,0,0,0-.58,2.67v3.1a4.32,4.32,0,0,0,.58,2.55,2.62,2.62,0,0,0,3.75,0A4.27,4.27,0,0,0,114.25,28.6Z"/><path class="cls-2" d="M129.77,34.2H127l-5.28-9v9H119V19.85h2.72l5.28,9v-9h2.73Z"/><path class="cls-2" d="M135,25.77h5.45v2.37H135v3.68h6.38V34.2h-9.11V19.85h9.11v2.37H135Z"/><path class="cls-1" d="M156.88,34.2h-2.73V28.12h-4.76V34.2h-2.72V19.85h2.72v5.9h4.76v-5.9h2.73Z"/><path class="cls-1" d="M164.39,19.85a5.2,5.2,0,0,1,3.77,1.33c.93.88,1.39,2.34,1.39,4.36v2.94c0,2-.47,3.48-1.42,4.37a5.3,5.3,0,0,1-3.82,1.35h-5V19.85ZM166.21,31a4.24,4.24,0,0,0,.61-2.55V25.69a4.57,4.57,0,0,0-.6-2.65,2.14,2.14,0,0,0-1.85-.82h-2.31v9.6h2.31A2.16,2.16,0,0,0,166.21,31Z"/><path class="cls-1" d="M171.11,29.83h2.58a2.41,2.41,0,0,0,.76,1.67,2.84,2.84,0,0,0,1.82.49q2.31,0,2.31-1.89a1.76,1.76,0,0,0-.46-1.3,2.68,2.68,0,0,0-1.46-.61L175.31,28q-3.88-.64-3.89-4a4,4,0,0,1,1.32-3.16,5.14,5.14,0,0,1,3.51-1.16,4.82,4.82,0,0,1,3.36,1.12,4.6,4.6,0,0,1,1.4,3.16h-2.62a2.11,2.11,0,0,0-.6-1.52,2.31,2.31,0,0,0-1.58-.47,2.36,2.36,0,0,0-1.61.48,1.74,1.74,0,0,0-.54,1.35,1.52,1.52,0,0,0,.48,1.18,3.08,3.08,0,0,0,1.5.63l1.52.27q3.7.66,3.7,4a4.07,4.07,0,0,1-1.38,3.31,5.72,5.72,0,0,1-3.74,1.14,5.16,5.16,0,0,1-3.59-1.15A4.72,4.72,0,0,1,171.11,29.83Z"/><path class="cls-1" d="M186.07,19.85V34.2h-2.73V19.85Z"/><path class="cls-1" d="M193.22,25.36c0-3.82,1.76-5.72,5.26-5.72a5.38,5.38,0,0,1,3.75,1.25,4.46,4.46,0,0,1,1.39,3.51v.15H200.9v-.13a2.37,2.37,0,0,0-.64-1.75,2.4,2.4,0,0,0-1.8-.64,2.2,2.2,0,0,0-1.9.81A4.65,4.65,0,0,0,196,25.5v3.1a4.16,4.16,0,0,0,.61,2.54,2.28,2.28,0,0,0,1.93.79,2.36,2.36,0,0,0,1.77-.63,2.31,2.31,0,0,0,.62-1.7v-.17h2.68v.15a4.52,4.52,0,0,1-1.37,3.54,5.41,5.41,0,0,1-3.77,1.24c-3.48,0-5.22-1.9-5.22-5.72Z"/><path class="cls-1" d="M207.87,31.41,207,34.2h-2.87l5.1-14.35h2.22l5.12,14.35h-2.89l-.87-2.79Zm2.45-7.78-1.73,5.51h3.48Z"/><path class="cls-1" d="M227.94,24.36a4.19,4.19,0,0,1-1.26,3.19,4.77,4.77,0,0,1-3.44,1.2H220.6V34.2h-2.73V19.85h5.37a4.77,4.77,0,0,1,3.44,1.2A4.38,4.38,0,0,1,227.94,24.36Zm-2.72,0a2.15,2.15,0,0,0-.56-1.59,2.07,2.07,0,0,0-1.55-.55H220.6v4.14h2.51a2.19,2.19,0,0,0,1.54-.52A1.91,1.91,0,0,0,225.22,24.36Z"/><path class="cls-1" d="M229,29.83h2.58a2.41,2.41,0,0,0,.76,1.67,2.84,2.84,0,0,0,1.82.49q2.31,0,2.31-1.89a1.72,1.72,0,0,0-.46-1.3,2.68,2.68,0,0,0-1.46-.61L233.16,28q-3.89-.64-3.89-4a4,4,0,0,1,1.32-3.16,5.14,5.14,0,0,1,3.51-1.16,4.82,4.82,0,0,1,3.36,1.12,4.6,4.6,0,0,1,1.4,3.16h-2.62a2.11,2.11,0,0,0-.6-1.52,2.9,2.9,0,0,0-3.18,0,1.71,1.71,0,0,0-.55,1.35,1.52,1.52,0,0,0,.48,1.18,3.08,3.08,0,0,0,1.5.63l1.52.27q3.71.66,3.7,4a4.07,4.07,0,0,1-1.38,3.31A5.7,5.7,0,0,1,234,34.32a5.2,5.2,0,0,1-3.59-1.15A4.72,4.72,0,0,1,229,29.83Z"/><path class="cls-1" d="M246.37,22.22v12h-2.74v-12H240V19.85H250v2.37Z"/><path class="cls-1" d="M250.57,25.36c0-3.82,1.74-5.72,5.22-5.72A5.21,5.21,0,0,1,259.58,21c.93.89,1.39,2.35,1.39,4.38v3.28c0,2-.47,3.49-1.42,4.38a5.35,5.35,0,0,1-3.84,1.34c-3.42,0-5.14-1.9-5.14-5.72Zm7.68,3.24V25.5a4.57,4.57,0,0,0-.6-2.65,2.15,2.15,0,0,0-1.86-.82,2.19,2.19,0,0,0-1.89.8,4.63,4.63,0,0,0-.58,2.67v3.1a4.32,4.32,0,0,0,.58,2.55,2.62,2.62,0,0,0,3.75,0A4.27,4.27,0,0,0,258.25,28.6Z"/><path class="cls-1" d="M273.77,34.2H271l-5.28-9v9H263V19.85h2.72l5.28,9v-9h2.73Z"/><path class="cls-1" d="M279,25.77h5.45v2.37H279v3.68h6.38V34.2h-9.11V19.85h9.11v2.37H279Z"/><path class="cls-1" d="M12.88,52.2H10.15V46.12H5.39V52.2H2.67V37.85H5.39v5.9h4.76v-5.9h2.73Z"/><path class="cls-1" d="M20.39,37.85a5.2,5.2,0,0,1,3.77,1.33c.93.88,1.39,2.34,1.39,4.36v2.94c0,2-.47,3.48-1.42,4.37a5.3,5.3,0,0,1-3.82,1.35h-5V37.85ZM22.21,49a4.24,4.24,0,0,0,.61-2.55V43.69a4.57,4.57,0,0,0-.6-2.65,2.14,2.14,0,0,0-1.85-.82H18.06v9.6h2.31A2.16,2.16,0,0,0,22.21,49Z"/><path class="cls-1" d="M27.11,47.83h2.58a2.41,2.41,0,0,0,.76,1.67,2.84,2.84,0,0,0,1.82.49q2.31,0,2.31-1.89a1.76,1.76,0,0,0-.46-1.3,2.68,2.68,0,0,0-1.46-.61L31.31,46q-3.89-.65-3.89-4a4,4,0,0,1,1.32-3.16,5.14,5.14,0,0,1,3.51-1.16,4.82,4.82,0,0,1,3.36,1.12A4.6,4.6,0,0,1,37,41.92H34.39a2.11,2.11,0,0,0-.6-1.52,2.31,2.31,0,0,0-1.58-.47,2.36,2.36,0,0,0-1.61.48,1.74,1.74,0,0,0-.54,1.35,1.52,1.52,0,0,0,.48,1.18,3.08,3.08,0,0,0,1.5.63l1.52.27q3.7.66,3.7,4a4.07,4.07,0,0,1-1.38,3.31,5.72,5.72,0,0,1-3.74,1.14,5.16,5.16,0,0,1-3.59-1.15A4.72,4.72,0,0,1,27.11,47.83Z"/><path class="cls-1" d="M42.07,37.85V52.2H39.34V37.85Z"/><path class="cls-1" d="M49.22,43.36c0-3.82,1.76-5.72,5.26-5.72a5.38,5.38,0,0,1,3.75,1.25,4.46,4.46,0,0,1,1.39,3.51v.15H56.9v-.13a2.37,2.37,0,0,0-.64-1.75,2.4,2.4,0,0,0-1.8-.64,2.2,2.2,0,0,0-1.9.81A4.65,4.65,0,0,0,52,43.5v3.1a4.16,4.16,0,0,0,.61,2.54,2.28,2.28,0,0,0,1.93.79,2.36,2.36,0,0,0,1.77-.63,2.31,2.31,0,0,0,.62-1.7v-.17h2.68v.15a4.52,4.52,0,0,1-1.37,3.54,5.41,5.41,0,0,1-3.77,1.24c-3.48,0-5.22-1.9-5.22-5.72Z"/><path class="cls-1" d="M63.87,49.41,63,52.2H60.12l5.1-14.35h2.22L72.56,52.2H69.67l-.87-2.79Zm2.45-7.78-1.73,5.51h3.48Z"/><path class="cls-1" d="M83.94,42.36a4.19,4.19,0,0,1-1.26,3.19,4.77,4.77,0,0,1-3.44,1.2H76.6V52.2H73.87V37.85h5.37a4.77,4.77,0,0,1,3.44,1.2A4.38,4.38,0,0,1,83.94,42.36Zm-2.72,0a2.15,2.15,0,0,0-.56-1.59,2.07,2.07,0,0,0-1.55-.55H76.6v4.14h2.51a2.19,2.19,0,0,0,1.54-.52A1.91,1.91,0,0,0,81.22,42.36Z"/><path class="cls-1" d="M85,47.83h2.58a2.41,2.41,0,0,0,.76,1.67,2.84,2.84,0,0,0,1.82.49q2.31,0,2.31-1.89A1.72,1.72,0,0,0,92,46.8a2.68,2.68,0,0,0-1.46-.61L89.16,46q-3.89-.65-3.89-4a4,4,0,0,1,1.32-3.16,5.14,5.14,0,0,1,3.51-1.16,4.82,4.82,0,0,1,3.36,1.12,4.6,4.6,0,0,1,1.4,3.16H92.24a2.11,2.11,0,0,0-.6-1.52,2.9,2.9,0,0,0-3.18,0,1.71,1.71,0,0,0-.55,1.35,1.52,1.52,0,0,0,.48,1.18,3.08,3.08,0,0,0,1.5.63l1.52.27q3.7.66,3.7,4a4.07,4.07,0,0,1-1.38,3.31A5.7,5.7,0,0,1,90,52.32a5.2,5.2,0,0,1-3.59-1.15A4.72,4.72,0,0,1,85,47.83Z"/><path class="cls-1" d="M102.37,40.22v12H99.63v-12H96V37.85H106v2.37Z"/><path class="cls-1" d="M106.57,43.36c0-3.82,1.74-5.72,5.22-5.72A5.21,5.21,0,0,1,115.58,39c.93.89,1.39,2.35,1.39,4.38v3.28c0,2-.47,3.49-1.42,4.38a5.35,5.35,0,0,1-3.84,1.34c-3.42,0-5.14-1.9-5.14-5.72Zm7.68,3.24V43.5a4.57,4.57,0,0,0-.6-2.65,2.15,2.15,0,0,0-1.86-.82,2.19,2.19,0,0,0-1.89.8,4.63,4.63,0,0,0-.58,2.67v3.1a4.32,4.32,0,0,0,.58,2.55,2.62,2.62,0,0,0,3.75,0A4.27,4.27,0,0,0,114.25,46.6Z"/><path class="cls-1" d="M129.77,52.2H127l-5.28-9v9H119V37.85h2.72l5.28,9v-9h2.73Z"/><path class="cls-1" d="M135,43.77h5.45v2.37H135v3.68h6.38V52.2h-9.11V37.85h9.11v2.37H135Z"/><path class="cls-2" d="M156.88,52.2h-2.73V46.12h-4.76V52.2h-2.72V37.85h2.72v5.9h4.76v-5.9h2.73Z"/><path class="cls-2" d="M164.39,37.85a5.2,5.2,0,0,1,3.77,1.33c.93.88,1.39,2.34,1.39,4.36v2.94c0,2-.47,3.48-1.42,4.37a5.3,5.3,0,0,1-3.82,1.35h-5V37.85ZM166.21,49a4.24,4.24,0,0,0,.61-2.55V43.69a4.57,4.57,0,0,0-.6-2.65,2.14,2.14,0,0,0-1.85-.82h-2.31v9.6h2.31A2.16,2.16,0,0,0,166.21,49Z"/><path class="cls-2" d="M171.11,47.83h2.58a2.41,2.41,0,0,0,.76,1.67,2.84,2.84,0,0,0,1.82.49q2.31,0,2.31-1.89a1.76,1.76,0,0,0-.46-1.3,2.68,2.68,0,0,0-1.46-.61L175.31,46q-3.88-.65-3.89-4a4,4,0,0,1,1.32-3.16,5.14,5.14,0,0,1,3.51-1.16,4.82,4.82,0,0,1,3.36,1.12,4.6,4.6,0,0,1,1.4,3.16h-2.62a2.11,2.11,0,0,0-.6-1.52,2.31,2.31,0,0,0-1.58-.47,2.36,2.36,0,0,0-1.61.48,1.74,1.74,0,0,0-.54,1.35,1.52,1.52,0,0,0,.48,1.18,3.08,3.08,0,0,0,1.5.63l1.52.27q3.7.66,3.7,4a4.07,4.07,0,0,1-1.38,3.31,5.72,5.72,0,0,1-3.74,1.14,5.16,5.16,0,0,1-3.59-1.15A4.72,4.72,0,0,1,171.11,47.83Z"/><path class="cls-2" d="M186.07,37.85V52.2h-2.73V37.85Z"/><path class="cls-2" d="M193.22,43.36c0-3.82,1.76-5.72,5.26-5.72a5.38,5.38,0,0,1,3.75,1.25,4.46,4.46,0,0,1,1.39,3.51v.15H200.9v-.13a2.37,2.37,0,0,0-.64-1.75,2.4,2.4,0,0,0-1.8-.64,2.2,2.2,0,0,0-1.9.81A4.65,4.65,0,0,0,196,43.5v3.1a4.16,4.16,0,0,0,.61,2.54,2.28,2.28,0,0,0,1.93.79,2.36,2.36,0,0,0,1.77-.63,2.31,2.31,0,0,0,.62-1.7v-.17h2.68v.15a4.52,4.52,0,0,1-1.37,3.54,5.41,5.41,0,0,1-3.77,1.24c-3.48,0-5.22-1.9-5.22-5.72Z"/><path class="cls-2" d="M207.87,49.41,207,52.2h-2.87l5.1-14.35h2.22l5.12,14.35h-2.89l-.87-2.79Zm2.45-7.78-1.73,5.51h3.48Z"/><path class="cls-2" d="M227.94,42.36a4.19,4.19,0,0,1-1.26,3.19,4.77,4.77,0,0,1-3.44,1.2H220.6V52.2h-2.73V37.85h5.37a4.77,4.77,0,0,1,3.44,1.2A4.38,4.38,0,0,1,227.94,42.36Zm-2.72,0a2.15,2.15,0,0,0-.56-1.59,2.07,2.07,0,0,0-1.55-.55H220.6v4.14h2.51a2.19,2.19,0,0,0,1.54-.52A1.91,1.91,0,0,0,225.22,42.36Z"/><path class="cls-2" d="M229,47.83h2.58a2.41,2.41,0,0,0,.76,1.67,2.84,2.84,0,0,0,1.82.49q2.31,0,2.31-1.89a1.72,1.72,0,0,0-.46-1.3,2.68,2.68,0,0,0-1.46-.61L233.16,46q-3.89-.65-3.89-4a4,4,0,0,1,1.32-3.16,5.14,5.14,0,0,1,3.51-1.16,4.82,4.82,0,0,1,3.36,1.12,4.6,4.6,0,0,1,1.4,3.16h-2.62a2.11,2.11,0,0,0-.6-1.52,2.9,2.9,0,0,0-3.18,0,1.71,1.71,0,0,0-.55,1.35,1.52,1.52,0,0,0,.48,1.18,3.08,3.08,0,0,0,1.5.63l1.52.27q3.71.66,3.7,4a4.07,4.07,0,0,1-1.38,3.31A5.7,5.7,0,0,1,234,52.32a5.2,5.2,0,0,1-3.59-1.15A4.72,4.72,0,0,1,229,47.83Z"/><path class="cls-2" d="M246.37,40.22v12h-2.74v-12H240V37.85H250v2.37Z"/><path class="cls-2" d="M250.57,43.36c0-3.82,1.74-5.72,5.22-5.72A5.21,5.21,0,0,1,259.58,39c.93.89,1.39,2.35,1.39,4.38v3.28c0,2-.47,3.49-1.42,4.38a5.35,5.35,0,0,1-3.84,1.34c-3.42,0-5.14-1.9-5.14-5.72Zm7.68,3.24V43.5a4.57,4.57,0,0,0-.6-2.65,2.15,2.15,0,0,0-1.86-.82,2.19,2.19,0,0,0-1.89.8,4.63,4.63,0,0,0-.58,2.67v3.1a4.32,4.32,0,0,0,.58,2.55,2.62,2.62,0,0,0,3.75,0A4.27,4.27,0,0,0,258.25,46.6Z"/><path class="cls-2" d="M273.77,52.2H271l-5.28-9v9H263V37.85h2.72l5.28,9v-9h2.73Z"/><path class="cls-2" d="M279,43.77h5.45v2.37H279v3.68h6.38V52.2h-9.11V37.85h9.11v2.37H279Z"/><path class="cls-2" d="M12.88,70.2H10.15V64.12H5.39V70.2H2.67V55.85H5.39v5.9h4.76v-5.9h2.73Z"/><path class="cls-2" d="M20.39,55.85a5.2,5.2,0,0,1,3.77,1.33c.93.88,1.39,2.34,1.39,4.36v2.94c0,2-.47,3.48-1.42,4.37a5.3,5.3,0,0,1-3.82,1.35h-5V55.85ZM22.21,67a4.24,4.24,0,0,0,.61-2.55V61.69a4.57,4.57,0,0,0-.6-2.65,2.14,2.14,0,0,0-1.85-.82H18.06v9.6h2.31A2.16,2.16,0,0,0,22.21,67Z"/><path class="cls-2" d="M27.11,65.83h2.58a2.41,2.41,0,0,0,.76,1.67,2.84,2.84,0,0,0,1.82.49q2.31,0,2.31-1.89a1.76,1.76,0,0,0-.46-1.3,2.68,2.68,0,0,0-1.46-.61L31.31,64q-3.89-.65-3.89-4a4,4,0,0,1,1.32-3.16,5.14,5.14,0,0,1,3.51-1.16,4.82,4.82,0,0,1,3.36,1.12A4.6,4.6,0,0,1,37,59.92H34.39a2.11,2.11,0,0,0-.6-1.52,2.31,2.31,0,0,0-1.58-.47,2.36,2.36,0,0,0-1.61.48,1.74,1.74,0,0,0-.54,1.35,1.52,1.52,0,0,0,.48,1.18,3.08,3.08,0,0,0,1.5.63l1.52.27q3.7.66,3.7,4a4.07,4.07,0,0,1-1.38,3.31,5.72,5.72,0,0,1-3.74,1.14,5.16,5.16,0,0,1-3.59-1.15A4.72,4.72,0,0,1,27.11,65.83Z"/><path class="cls-2" d="M42.07,55.85V70.2H39.34V55.85Z"/><path class="cls-2" d="M49.22,61.36c0-3.82,1.76-5.72,5.26-5.72a5.38,5.38,0,0,1,3.75,1.25,4.46,4.46,0,0,1,1.39,3.51v.15H56.9v-.13a2.37,2.37,0,0,0-.64-1.75,2.4,2.4,0,0,0-1.8-.64,2.2,2.2,0,0,0-1.9.81A4.65,4.65,0,0,0,52,61.5v3.1a4.16,4.16,0,0,0,.61,2.54,2.28,2.28,0,0,0,1.93.79,2.36,2.36,0,0,0,1.77-.63,2.31,2.31,0,0,0,.62-1.7v-.17h2.68v.15a4.52,4.52,0,0,1-1.37,3.54,5.41,5.41,0,0,1-3.77,1.24c-3.48,0-5.22-1.9-5.22-5.72Z"/><path class="cls-2" d="M63.87,67.41,63,70.2H60.12l5.1-14.35h2.22L72.56,70.2H69.67l-.87-2.79Zm2.45-7.78-1.73,5.51h3.48Z"/><path class="cls-2" d="M83.94,60.36a4.19,4.19,0,0,1-1.26,3.19,4.77,4.77,0,0,1-3.44,1.2H76.6V70.2H73.87V55.85h5.37a4.77,4.77,0,0,1,3.44,1.2A4.38,4.38,0,0,1,83.94,60.36Zm-2.72,0a2.15,2.15,0,0,0-.56-1.59,2.07,2.07,0,0,0-1.55-.55H76.6v4.14h2.51a2.19,2.19,0,0,0,1.54-.52A1.91,1.91,0,0,0,81.22,60.36Z"/><path class="cls-2" d="M85,65.83h2.58a2.41,2.41,0,0,0,.76,1.67,2.84,2.84,0,0,0,1.82.49q2.31,0,2.31-1.89A1.72,1.72,0,0,0,92,64.8a2.68,2.68,0,0,0-1.46-.61L89.16,64q-3.89-.65-3.89-4a4,4,0,0,1,1.32-3.16,5.14,5.14,0,0,1,3.51-1.16,4.82,4.82,0,0,1,3.36,1.12,4.6,4.6,0,0,1,1.4,3.16H92.24a2.11,2.11,0,0,0-.6-1.52,2.9,2.9,0,0,0-3.18,0,1.71,1.71,0,0,0-.55,1.35,1.52,1.52,0,0,0,.48,1.18,3.08,3.08,0,0,0,1.5.63l1.52.27q3.7.66,3.7,4a4.07,4.07,0,0,1-1.38,3.31A5.7,5.7,0,0,1,90,70.32a5.2,5.2,0,0,1-3.59-1.15A4.72,4.72,0,0,1,85,65.83Z"/><path class="cls-2" d="M102.37,58.22v12H99.63v-12H96V55.85H106v2.37Z"/><path class="cls-2" d="M106.57,61.36c0-3.82,1.74-5.72,5.22-5.72A5.21,5.21,0,0,1,115.58,57c.93.89,1.39,2.35,1.39,4.38v3.28c0,2-.47,3.49-1.42,4.38a5.35,5.35,0,0,1-3.84,1.34c-3.42,0-5.14-1.9-5.14-5.72Zm7.68,3.24V61.5a4.57,4.57,0,0,0-.6-2.65,2.15,2.15,0,0,0-1.86-.82,2.19,2.19,0,0,0-1.89.8,4.63,4.63,0,0,0-.58,2.67v3.1a4.32,4.32,0,0,0,.58,2.55,2.62,2.62,0,0,0,3.75,0A4.27,4.27,0,0,0,114.25,64.6Z"/><path class="cls-2" d="M129.77,70.2H127l-5.28-9v9H119V55.85h2.72l5.28,9v-9h2.73Z"/><path class="cls-2" d="M135,61.77h5.45v2.37H135v3.68h6.38V70.2h-9.11V55.85h9.11v2.37H135Z"/><path class="cls-1" d="M156.88,70.2h-2.73V64.12h-4.76V70.2h-2.72V55.85h2.72v5.9h4.76v-5.9h2.73Z"/><path class="cls-1" d="M164.39,55.85a5.2,5.2,0,0,1,3.77,1.33c.93.88,1.39,2.34,1.39,4.36v2.94c0,2-.47,3.48-1.42,4.37a5.3,5.3,0,0,1-3.82,1.35h-5V55.85ZM166.21,67a4.24,4.24,0,0,0,.61-2.55V61.69a4.57,4.57,0,0,0-.6-2.65,2.14,2.14,0,0,0-1.85-.82h-2.31v9.6h2.31A2.16,2.16,0,0,0,166.21,67Z"/><path class="cls-1" d="M171.11,65.83h2.58a2.41,2.41,0,0,0,.76,1.67,2.84,2.84,0,0,0,1.82.49q2.31,0,2.31-1.89a1.76,1.76,0,0,0-.46-1.3,2.68,2.68,0,0,0-1.46-.61L175.31,64q-3.88-.65-3.89-4a4,4,0,0,1,1.32-3.16,5.14,5.14,0,0,1,3.51-1.16,4.82,4.82,0,0,1,3.36,1.12,4.6,4.6,0,0,1,1.4,3.16h-2.62a2.11,2.11,0,0,0-.6-1.52,2.31,2.31,0,0,0-1.58-.47,2.36,2.36,0,0,0-1.61.48,1.74,1.74,0,0,0-.54,1.35,1.52,1.52,0,0,0,.48,1.18,3.08,3.08,0,0,0,1.5.63l1.52.27q3.7.66,3.7,4a4.07,4.07,0,0,1-1.38,3.31,5.72,5.72,0,0,1-3.74,1.14,5.16,5.16,0,0,1-3.59-1.15A4.72,4.72,0,0,1,171.11,65.83Z"/><path class="cls-1" d="M186.07,55.85V70.2h-2.73V55.85Z"/><path class="cls-1" d="M193.22,61.36c0-3.82,1.76-5.72,5.26-5.72a5.38,5.38,0,0,1,3.75,1.25,4.46,4.46,0,0,1,1.39,3.51v.15H200.9v-.13a2.37,2.37,0,0,0-.64-1.75,2.4,2.4,0,0,0-1.8-.64,2.2,2.2,0,0,0-1.9.81A4.65,4.65,0,0,0,196,61.5v3.1a4.16,4.16,0,0,0,.61,2.54,2.28,2.28,0,0,0,1.93.79,2.36,2.36,0,0,0,1.77-.63,2.31,2.31,0,0,0,.62-1.7v-.17h2.68v.15a4.52,4.52,0,0,1-1.37,3.54,5.41,5.41,0,0,1-3.77,1.24c-3.48,0-5.22-1.9-5.22-5.72Z"/><path class="cls-1" d="M207.87,67.41,207,70.2h-2.87l5.1-14.35h2.22l5.12,14.35h-2.89l-.87-2.79Zm2.45-7.78-1.73,5.51h3.48Z"/><path class="cls-1" d="M227.94,60.36a4.19,4.19,0,0,1-1.26,3.19,4.77,4.77,0,0,1-3.44,1.2H220.6V70.2h-2.73V55.85h5.37a4.77,4.77,0,0,1,3.44,1.2A4.38,4.38,0,0,1,227.94,60.36Zm-2.72,0a2.15,2.15,0,0,0-.56-1.59,2.07,2.07,0,0,0-1.55-.55H220.6v4.14h2.51a2.19,2.19,0,0,0,1.54-.52A1.91,1.91,0,0,0,225.22,60.36Z"/><path class="cls-1" d="M229,65.83h2.58a2.41,2.41,0,0,0,.76,1.67,2.84,2.84,0,0,0,1.82.49q2.31,0,2.31-1.89a1.72,1.72,0,0,0-.46-1.3,2.68,2.68,0,0,0-1.46-.61L233.16,64q-3.89-.65-3.89-4a4,4,0,0,1,1.32-3.16,5.14,5.14,0,0,1,3.51-1.16,4.82,4.82,0,0,1,3.36,1.12,4.6,4.6,0,0,1,1.4,3.16h-2.62a2.11,2.11,0,0,0-.6-1.52,2.9,2.9,0,0,0-3.18,0,1.71,1.71,0,0,0-.55,1.35,1.52,1.52,0,0,0,.48,1.18,3.08,3.08,0,0,0,1.5.63l1.52.27q3.71.66,3.7,4a4.07,4.07,0,0,1-1.38,3.31A5.7,5.7,0,0,1,234,70.32a5.2,5.2,0,0,1-3.59-1.15A4.72,4.72,0,0,1,229,65.83Z"/><path class="cls-1" d="M246.37,58.22v12h-2.74v-12H240V55.85H250v2.37Z"/><path class="cls-1" d="M250.57,61.36c0-3.82,1.74-5.72,5.22-5.72A5.21,5.21,0,0,1,259.58,57c.93.89,1.39,2.35,1.39,4.38v3.28c0,2-.47,3.49-1.42,4.38a5.35,5.35,0,0,1-3.84,1.34c-3.42,0-5.14-1.9-5.14-5.72Zm7.68,3.24V61.5a4.57,4.57,0,0,0-.6-2.65,2.15,2.15,0,0,0-1.86-.82,2.19,2.19,0,0,0-1.89.8,4.63,4.63,0,0,0-.58,2.67v3.1a4.32,4.32,0,0,0,.58,2.55,2.62,2.62,0,0,0,3.75,0A4.27,4.27,0,0,0,258.25,64.6Z"/><path class="cls-1" d="M273.77,70.2H271l-5.28-9v9H263V55.85h2.72l5.28,9v-9h2.73Z"/><path class="cls-1" d="M279,61.77h5.45v2.37H279v3.68h6.38V70.2h-9.11V55.85h9.11v2.37H279Z"/><path class="cls-1" d="M12.88,88.2H10.15V82.12H5.39V88.2H2.67V73.85H5.39v5.9h4.76v-5.9h2.73Z"/><path class="cls-1" d="M20.39,73.85a5.2,5.2,0,0,1,3.77,1.33c.93.88,1.39,2.34,1.39,4.36v2.94c0,2-.47,3.48-1.42,4.37a5.3,5.3,0,0,1-3.82,1.35h-5V73.85ZM22.21,85a4.24,4.24,0,0,0,.61-2.55V79.69a4.57,4.57,0,0,0-.6-2.65,2.14,2.14,0,0,0-1.85-.82H18.06v9.6h2.31A2.16,2.16,0,0,0,22.21,85Z"/><path class="cls-1" d="M27.11,83.83h2.58a2.41,2.41,0,0,0,.76,1.67,2.84,2.84,0,0,0,1.82.49q2.31,0,2.31-1.89a1.76,1.76,0,0,0-.46-1.3,2.68,2.68,0,0,0-1.46-.61L31.31,82q-3.89-.64-3.89-4a4,4,0,0,1,1.32-3.16,5.14,5.14,0,0,1,3.51-1.16,4.82,4.82,0,0,1,3.36,1.12A4.6,4.6,0,0,1,37,77.92H34.39a2.11,2.11,0,0,0-.6-1.52,2.31,2.31,0,0,0-1.58-.47,2.36,2.36,0,0,0-1.61.48,1.74,1.74,0,0,0-.54,1.35,1.52,1.52,0,0,0,.48,1.18,3.08,3.08,0,0,0,1.5.63l1.52.27q3.7.66,3.7,4a4.07,4.07,0,0,1-1.38,3.31,5.72,5.72,0,0,1-3.74,1.14,5.16,5.16,0,0,1-3.59-1.15A4.72,4.72,0,0,1,27.11,83.83Z"/><path class="cls-1" d="M42.07,73.85V88.2H39.34V73.85Z"/><path class="cls-1" d="M49.22,79.36c0-3.82,1.76-5.72,5.26-5.72a5.38,5.38,0,0,1,3.75,1.25,4.46,4.46,0,0,1,1.39,3.51v.15H56.9v-.13a2.37,2.37,0,0,0-.64-1.75,2.4,2.4,0,0,0-1.8-.64,2.2,2.2,0,0,0-1.9.81A4.65,4.65,0,0,0,52,79.5v3.1a4.16,4.16,0,0,0,.61,2.54,2.28,2.28,0,0,0,1.93.79,2.36,2.36,0,0,0,1.77-.63,2.31,2.31,0,0,0,.62-1.7v-.17h2.68v.15a4.52,4.52,0,0,1-1.37,3.54,5.41,5.41,0,0,1-3.77,1.24c-3.48,0-5.22-1.9-5.22-5.72Z"/><path class="cls-1" d="M63.87,85.41,63,88.2H60.12l5.1-14.35h2.22L72.56,88.2H69.67l-.87-2.79Zm2.45-7.78-1.73,5.51h3.48Z"/><path class="cls-1" d="M83.94,78.36a4.19,4.19,0,0,1-1.26,3.19,4.77,4.77,0,0,1-3.44,1.2H76.6V88.2H73.87V73.85h5.37a4.77,4.77,0,0,1,3.44,1.2A4.38,4.38,0,0,1,83.94,78.36Zm-2.72,0a2.15,2.15,0,0,0-.56-1.59,2.07,2.07,0,0,0-1.55-.55H76.6v4.14h2.51a2.19,2.19,0,0,0,1.54-.52A1.91,1.91,0,0,0,81.22,78.36Z"/><path class="cls-1" d="M85,83.83h2.58a2.41,2.41,0,0,0,.76,1.67,2.84,2.84,0,0,0,1.82.49q2.31,0,2.31-1.89A1.72,1.72,0,0,0,92,82.8a2.68,2.68,0,0,0-1.46-.61L89.16,82q-3.89-.64-3.89-4a4,4,0,0,1,1.32-3.16,5.14,5.14,0,0,1,3.51-1.16,4.82,4.82,0,0,1,3.36,1.12,4.6,4.6,0,0,1,1.4,3.16H92.24a2.11,2.11,0,0,0-.6-1.52,2.9,2.9,0,0,0-3.18,0,1.71,1.71,0,0,0-.55,1.35,1.52,1.52,0,0,0,.48,1.18,3.08,3.08,0,0,0,1.5.63l1.52.27q3.7.66,3.7,4a4.07,4.07,0,0,1-1.38,3.31A5.7,5.7,0,0,1,90,88.32a5.2,5.2,0,0,1-3.59-1.15A4.72,4.72,0,0,1,85,83.83Z"/><path class="cls-1" d="M102.37,76.22v12H99.63v-12H96V73.85H106v2.37Z"/><path class="cls-1" d="M106.57,79.36c0-3.82,1.74-5.72,5.22-5.72A5.21,5.21,0,0,1,115.58,75c.93.89,1.39,2.35,1.39,4.38v3.28c0,2-.47,3.49-1.42,4.38a5.35,5.35,0,0,1-3.84,1.34c-3.42,0-5.14-1.9-5.14-5.72Zm7.68,3.24V79.5a4.57,4.57,0,0,0-.6-2.65,2.15,2.15,0,0,0-1.86-.82,2.19,2.19,0,0,0-1.89.8,4.63,4.63,0,0,0-.58,2.67v3.1a4.32,4.32,0,0,0,.58,2.55,2.62,2.62,0,0,0,3.75,0A4.27,4.27,0,0,0,114.25,82.6Z"/><path class="cls-1" d="M129.77,88.2H127l-5.28-9v9H119V73.85h2.72l5.28,9v-9h2.73Z"/><path class="cls-1" d="M135,79.77h5.45v2.37H135v3.68h6.38V88.2h-9.11V73.85h9.11v2.37H135Z"/><path class="cls-2" d="M156.88,88.2h-2.73V82.12h-4.76V88.2h-2.72V73.85h2.72v5.9h4.76v-5.9h2.73Z"/><path class="cls-2" d="M164.39,73.85a5.2,5.2,0,0,1,3.77,1.33c.93.88,1.39,2.34,1.39,4.36v2.94c0,2-.47,3.48-1.42,4.37a5.3,5.3,0,0,1-3.82,1.35h-5V73.85ZM166.21,85a4.24,4.24,0,0,0,.61-2.55V79.69a4.57,4.57,0,0,0-.6-2.65,2.14,2.14,0,0,0-1.85-.82h-2.31v9.6h2.31A2.16,2.16,0,0,0,166.21,85Z"/><path class="cls-2" d="M171.11,83.83h2.58a2.41,2.41,0,0,0,.76,1.67,2.84,2.84,0,0,0,1.82.49q2.31,0,2.31-1.89a1.76,1.76,0,0,0-.46-1.3,2.68,2.68,0,0,0-1.46-.61L175.31,82q-3.88-.64-3.89-4a4,4,0,0,1,1.32-3.16,5.14,5.14,0,0,1,3.51-1.16,4.82,4.82,0,0,1,3.36,1.12,4.6,4.6,0,0,1,1.4,3.16h-2.62a2.11,2.11,0,0,0-.6-1.52,2.31,2.31,0,0,0-1.58-.47,2.36,2.36,0,0,0-1.61.48,1.74,1.74,0,0,0-.54,1.35,1.52,1.52,0,0,0,.48,1.18,3.08,3.08,0,0,0,1.5.63l1.52.27q3.7.66,3.7,4a4.07,4.07,0,0,1-1.38,3.31,5.72,5.72,0,0,1-3.74,1.14,5.16,5.16,0,0,1-3.59-1.15A4.72,4.72,0,0,1,171.11,83.83Z"/><path class="cls-2" d="M186.07,73.85V88.2h-2.73V73.85Z"/><path class="cls-2" d="M193.22,79.36c0-3.82,1.76-5.72,5.26-5.72a5.38,5.38,0,0,1,3.75,1.25,4.46,4.46,0,0,1,1.39,3.51v.15H200.9v-.13a2.37,2.37,0,0,0-.64-1.75,2.4,2.4,0,0,0-1.8-.64,2.2,2.2,0,0,0-1.9.81A4.65,4.65,0,0,0,196,79.5v3.1a4.16,4.16,0,0,0,.61,2.54,2.28,2.28,0,0,0,1.93.79,2.36,2.36,0,0,0,1.77-.63,2.31,2.31,0,0,0,.62-1.7v-.17h2.68v.15a4.52,4.52,0,0,1-1.37,3.54,5.41,5.41,0,0,1-3.77,1.24c-3.48,0-5.22-1.9-5.22-5.72Z"/><path class="cls-2" d="M207.87,85.41,207,88.2h-2.87l5.1-14.35h2.22l5.12,14.35h-2.89l-.87-2.79Zm2.45-7.78-1.73,5.51h3.48Z"/><path class="cls-2" d="M227.94,78.36a4.19,4.19,0,0,1-1.26,3.19,4.77,4.77,0,0,1-3.44,1.2H220.6V88.2h-2.73V73.85h5.37a4.77,4.77,0,0,1,3.44,1.2A4.38,4.38,0,0,1,227.94,78.36Zm-2.72,0a2.15,2.15,0,0,0-.56-1.59,2.07,2.07,0,0,0-1.55-.55H220.6v4.14h2.51a2.19,2.19,0,0,0,1.54-.52A1.91,1.91,0,0,0,225.22,78.36Z"/><path class="cls-2" d="M229,83.83h2.58a2.41,2.41,0,0,0,.76,1.67,2.84,2.84,0,0,0,1.82.49q2.31,0,2.31-1.89a1.72,1.72,0,0,0-.46-1.3,2.68,2.68,0,0,0-1.46-.61L233.16,82q-3.89-.64-3.89-4a4,4,0,0,1,1.32-3.16,5.14,5.14,0,0,1,3.51-1.16,4.82,4.82,0,0,1,3.36,1.12,4.6,4.6,0,0,1,1.4,3.16h-2.62a2.11,2.11,0,0,0-.6-1.52,2.9,2.9,0,0,0-3.18,0,1.71,1.71,0,0,0-.55,1.35,1.52,1.52,0,0,0,.48,1.18,3.08,3.08,0,0,0,1.5.63l1.52.27q3.71.66,3.7,4a4.07,4.07,0,0,1-1.38,3.31A5.7,5.7,0,0,1,234,88.32a5.2,5.2,0,0,1-3.59-1.15A4.72,4.72,0,0,1,229,83.83Z"/><path class="cls-2" d="M246.37,76.22v12h-2.74v-12H240V73.85H250v2.37Z"/><path class="cls-2" d="M250.57,79.36c0-3.82,1.74-5.72,5.22-5.72A5.21,5.21,0,0,1,259.58,75c.93.89,1.39,2.35,1.39,4.38v3.28c0,2-.47,3.49-1.42,4.38a5.35,5.35,0,0,1-3.84,1.34c-3.42,0-5.14-1.9-5.14-5.72Zm7.68,3.24V79.5a4.57,4.57,0,0,0-.6-2.65,2.15,2.15,0,0,0-1.86-.82,2.19,2.19,0,0,0-1.89.8,4.63,4.63,0,0,0-.58,2.67v3.1a4.32,4.32,0,0,0,.58,2.55,2.62,2.62,0,0,0,3.75,0A4.27,4.27,0,0,0,258.25,82.6Z"/><path class="cls-2" d="M273.77,88.2H271l-5.28-9v9H263V73.85h2.72l5.28,9v-9h2.73Z"/><path class="cls-2" d="M279,79.77h5.45v2.37H279v3.68h6.38V88.2h-9.11V73.85h9.11v2.37H279Z"/><path class="cls-2" d="M12.88,106.2H10.15v-6.08H5.39v6.08H2.67V91.85H5.39v5.9h4.76v-5.9h2.73Z"/><path class="cls-2" d="M20.39,91.85a5.2,5.2,0,0,1,3.77,1.33c.93.88,1.39,2.34,1.39,4.36v2.94c0,2-.47,3.48-1.42,4.37a5.3,5.3,0,0,1-3.82,1.35h-5V91.85ZM22.21,103a4.24,4.24,0,0,0,.61-2.55V97.69a4.57,4.57,0,0,0-.6-2.65,2.14,2.14,0,0,0-1.85-.82H18.06v9.6h2.31A2.16,2.16,0,0,0,22.21,103Z"/><path class="cls-2" d="M27.11,101.83h2.58a2.41,2.41,0,0,0,.76,1.67,2.84,2.84,0,0,0,1.82.49q2.31,0,2.31-1.89a1.76,1.76,0,0,0-.46-1.3,2.68,2.68,0,0,0-1.46-.61L31.31,100q-3.89-.64-3.89-4a4,4,0,0,1,1.32-3.16,5.14,5.14,0,0,1,3.51-1.16,4.82,4.82,0,0,1,3.36,1.12A4.6,4.6,0,0,1,37,95.92H34.39a2.11,2.11,0,0,0-.6-1.52,2.31,2.31,0,0,0-1.58-.47,2.36,2.36,0,0,0-1.61.48,1.74,1.74,0,0,0-.54,1.35,1.52,1.52,0,0,0,.48,1.18,3.08,3.08,0,0,0,1.5.63l1.52.27q3.7.66,3.7,4a4.07,4.07,0,0,1-1.38,3.31,5.72,5.72,0,0,1-3.74,1.14,5.16,5.16,0,0,1-3.59-1.15A4.72,4.72,0,0,1,27.11,101.83Z"/><path class="cls-2" d="M42.07,91.85V106.2H39.34V91.85Z"/><path class="cls-2" d="M49.22,97.36c0-3.82,1.76-5.72,5.26-5.72a5.38,5.38,0,0,1,3.75,1.25,4.46,4.46,0,0,1,1.39,3.51v.15H56.9v-.13a2.37,2.37,0,0,0-.64-1.75,2.4,2.4,0,0,0-1.8-.64,2.2,2.2,0,0,0-1.9.81A4.65,4.65,0,0,0,52,97.5v3.1a4.16,4.16,0,0,0,.61,2.54,2.28,2.28,0,0,0,1.93.79,2.36,2.36,0,0,0,1.77-.63,2.31,2.31,0,0,0,.62-1.7v-.17h2.68v.15a4.52,4.52,0,0,1-1.37,3.54,5.41,5.41,0,0,1-3.77,1.24c-3.48,0-5.22-1.9-5.22-5.72Z"/><path class="cls-2" d="M63.87,103.41,63,106.2H60.12l5.1-14.35h2.22l5.12,14.35H69.67l-.87-2.79Zm2.45-7.78-1.73,5.51h3.48Z"/><path class="cls-2" d="M83.94,96.36a4.19,4.19,0,0,1-1.26,3.19,4.77,4.77,0,0,1-3.44,1.2H76.6v5.45H73.87V91.85h5.37a4.77,4.77,0,0,1,3.44,1.2A4.38,4.38,0,0,1,83.94,96.36Zm-2.72,0a2.15,2.15,0,0,0-.56-1.59,2.07,2.07,0,0,0-1.55-.55H76.6v4.14h2.51a2.19,2.19,0,0,0,1.54-.52A1.91,1.91,0,0,0,81.22,96.36Z"/><path class="cls-2" d="M85,101.83h2.58a2.41,2.41,0,0,0,.76,1.67,2.84,2.84,0,0,0,1.82.49q2.31,0,2.31-1.89a1.72,1.72,0,0,0-.46-1.3,2.68,2.68,0,0,0-1.46-.61L89.16,100q-3.89-.64-3.89-4a4,4,0,0,1,1.32-3.16,5.14,5.14,0,0,1,3.51-1.16,4.82,4.82,0,0,1,3.36,1.12,4.6,4.6,0,0,1,1.4,3.16H92.24a2.11,2.11,0,0,0-.6-1.52,2.9,2.9,0,0,0-3.18,0,1.71,1.71,0,0,0-.55,1.35,1.52,1.52,0,0,0,.48,1.18,3.08,3.08,0,0,0,1.5.63l1.52.27q3.7.66,3.7,4a4.07,4.07,0,0,1-1.38,3.31A5.7,5.7,0,0,1,90,106.32a5.2,5.2,0,0,1-3.59-1.15A4.72,4.72,0,0,1,85,101.83Z"/><path class="cls-2" d="M102.37,94.22v12H99.63v-12H96V91.85H106v2.37Z"/><path class="cls-2" d="M106.57,97.36c0-3.82,1.74-5.72,5.22-5.72A5.21,5.21,0,0,1,115.58,93c.93.89,1.39,2.35,1.39,4.38v3.28c0,2-.47,3.49-1.42,4.38a5.35,5.35,0,0,1-3.84,1.34c-3.42,0-5.14-1.9-5.14-5.72Zm7.68,3.24V97.5a4.57,4.57,0,0,0-.6-2.65,2.15,2.15,0,0,0-1.86-.82,2.19,2.19,0,0,0-1.89.8,4.63,4.63,0,0,0-.58,2.67v3.1a4.32,4.32,0,0,0,.58,2.55,2.62,2.62,0,0,0,3.75,0A4.27,4.27,0,0,0,114.25,100.6Z"/><path class="cls-2" d="M129.77,106.2H127l-5.28-9v9H119V91.85h2.72l5.28,9v-9h2.73Z"/><path class="cls-2" d="M135,97.77h5.45v2.37H135v3.68h6.38v2.38h-9.11V91.85h9.11v2.37H135Z"/><path class="cls-1" d="M156.88,106.2h-2.73v-6.08h-4.76v6.08h-2.72V91.85h2.72v5.9h4.76v-5.9h2.73Z"/><path class="cls-1" d="M164.39,91.85a5.2,5.2,0,0,1,3.77,1.33c.93.88,1.39,2.34,1.39,4.36v2.94c0,2-.47,3.48-1.42,4.37a5.3,5.3,0,0,1-3.82,1.35h-5V91.85ZM166.21,103a4.24,4.24,0,0,0,.61-2.55V97.69a4.57,4.57,0,0,0-.6-2.65,2.14,2.14,0,0,0-1.85-.82h-2.31v9.6h2.31A2.16,2.16,0,0,0,166.21,103Z"/><path class="cls-1" d="M171.11,101.83h2.58a2.41,2.41,0,0,0,.76,1.67,2.84,2.84,0,0,0,1.82.49q2.31,0,2.31-1.89a1.76,1.76,0,0,0-.46-1.3,2.68,2.68,0,0,0-1.46-.61l-1.35-.23q-3.88-.64-3.89-4a4,4,0,0,1,1.32-3.16,5.14,5.14,0,0,1,3.51-1.16,4.82,4.82,0,0,1,3.36,1.12,4.6,4.6,0,0,1,1.4,3.16h-2.62a2.11,2.11,0,0,0-.6-1.52,2.31,2.31,0,0,0-1.58-.47,2.36,2.36,0,0,0-1.61.48,1.74,1.74,0,0,0-.54,1.35,1.52,1.52,0,0,0,.48,1.18,3.08,3.08,0,0,0,1.5.63l1.52.27q3.7.66,3.7,4a4.07,4.07,0,0,1-1.38,3.31,5.72,5.72,0,0,1-3.74,1.14,5.16,5.16,0,0,1-3.59-1.15A4.72,4.72,0,0,1,171.11,101.83Z"/><path class="cls-1" d="M186.07,91.85V106.2h-2.73V91.85Z"/><path class="cls-1" d="M193.22,97.36c0-3.82,1.76-5.72,5.26-5.72a5.38,5.38,0,0,1,3.75,1.25,4.46,4.46,0,0,1,1.39,3.51v.15H200.9v-.13a2.37,2.37,0,0,0-.64-1.75,2.4,2.4,0,0,0-1.8-.64,2.2,2.2,0,0,0-1.9.81A4.65,4.65,0,0,0,196,97.5v3.1a4.16,4.16,0,0,0,.61,2.54,2.28,2.28,0,0,0,1.93.79,2.36,2.36,0,0,0,1.77-.63,2.31,2.31,0,0,0,.62-1.7v-.17h2.68v.15a4.52,4.52,0,0,1-1.37,3.54,5.41,5.41,0,0,1-3.77,1.24c-3.48,0-5.22-1.9-5.22-5.72Z"/><path class="cls-1" d="M207.87,103.41,207,106.2h-2.87l5.1-14.35h2.22l5.12,14.35h-2.89l-.87-2.79Zm2.45-7.78-1.73,5.51h3.48Z"/><path class="cls-1" d="M227.94,96.36a4.19,4.19,0,0,1-1.26,3.19,4.77,4.77,0,0,1-3.44,1.2H220.6v5.45h-2.73V91.85h5.37a4.77,4.77,0,0,1,3.44,1.2A4.38,4.38,0,0,1,227.94,96.36Zm-2.72,0a2.15,2.15,0,0,0-.56-1.59,2.07,2.07,0,0,0-1.55-.55H220.6v4.14h2.51a2.19,2.19,0,0,0,1.54-.52A1.91,1.91,0,0,0,225.22,96.36Z"/><path class="cls-1" d="M229,101.83h2.58a2.41,2.41,0,0,0,.76,1.67,2.84,2.84,0,0,0,1.82.49q2.31,0,2.31-1.89a1.72,1.72,0,0,0-.46-1.3,2.68,2.68,0,0,0-1.46-.61l-1.35-.23q-3.89-.64-3.89-4a4,4,0,0,1,1.32-3.16,5.14,5.14,0,0,1,3.51-1.16,4.82,4.82,0,0,1,3.36,1.12,4.6,4.6,0,0,1,1.4,3.16h-2.62a2.11,2.11,0,0,0-.6-1.52,2.9,2.9,0,0,0-3.18,0,1.71,1.71,0,0,0-.55,1.35,1.52,1.52,0,0,0,.48,1.18,3.08,3.08,0,0,0,1.5.63l1.52.27q3.71.66,3.7,4a4.07,4.07,0,0,1-1.38,3.31,5.7,5.7,0,0,1-3.74,1.14,5.2,5.2,0,0,1-3.59-1.15A4.72,4.72,0,0,1,229,101.83Z"/><path class="cls-1" d="M246.37,94.22v12h-2.74v-12H240V91.85H250v2.37Z"/><path class="cls-1" d="M250.57,97.36c0-3.82,1.74-5.72,5.22-5.72A5.21,5.21,0,0,1,259.58,93c.93.89,1.39,2.35,1.39,4.38v3.28c0,2-.47,3.49-1.42,4.38a5.35,5.35,0,0,1-3.84,1.34c-3.42,0-5.14-1.9-5.14-5.72Zm7.68,3.24V97.5a4.57,4.57,0,0,0-.6-2.65,2.15,2.15,0,0,0-1.86-.82,2.19,2.19,0,0,0-1.89.8,4.63,4.63,0,0,0-.58,2.67v3.1a4.32,4.32,0,0,0,.58,2.55,2.62,2.62,0,0,0,3.75,0A4.27,4.27,0,0,0,258.25,100.6Z"/><path class="cls-1" d="M273.77,106.2H271l-5.28-9v9H263V91.85h2.72l5.28,9v-9h2.73Z"/><path class="cls-1" d="M279,97.77h5.45v2.37H279v3.68h6.38v2.38h-9.11V91.85h9.11v2.37H279Z"/><path class="cls-1" d="M12.88,124.2H10.15v-6.08H5.39v6.08H2.67V109.85H5.39v5.9h4.76v-5.9h2.73Z"/><path class="cls-1" d="M20.39,109.85a5.2,5.2,0,0,1,3.77,1.33c.93.88,1.39,2.34,1.39,4.36v2.94c0,2-.47,3.48-1.42,4.37a5.3,5.3,0,0,1-3.82,1.35h-5V109.85ZM22.21,121a4.24,4.24,0,0,0,.61-2.55v-2.77a4.57,4.57,0,0,0-.6-2.65,2.14,2.14,0,0,0-1.85-.82H18.06v9.6h2.31A2.16,2.16,0,0,0,22.21,121Z"/><path class="cls-1" d="M27.11,119.83h2.58a2.41,2.41,0,0,0,.76,1.67,2.84,2.84,0,0,0,1.82.49q2.31,0,2.31-1.89a1.76,1.76,0,0,0-.46-1.3,2.68,2.68,0,0,0-1.46-.61L31.31,118q-3.89-.64-3.89-4a4,4,0,0,1,1.32-3.16,5.14,5.14,0,0,1,3.51-1.16,4.82,4.82,0,0,1,3.36,1.12,4.6,4.6,0,0,1,1.4,3.16H34.39a2.11,2.11,0,0,0-.6-1.52,2.31,2.31,0,0,0-1.58-.47,2.36,2.36,0,0,0-1.61.48,1.74,1.74,0,0,0-.54,1.35,1.52,1.52,0,0,0,.48,1.18,3.08,3.08,0,0,0,1.5.63l1.52.27q3.7.66,3.7,4a4.07,4.07,0,0,1-1.38,3.31,5.72,5.72,0,0,1-3.74,1.14,5.16,5.16,0,0,1-3.59-1.15A4.72,4.72,0,0,1,27.11,119.83Z"/><path class="cls-1" d="M42.07,109.85V124.2H39.34V109.85Z"/><path class="cls-1" d="M49.22,115.36c0-3.82,1.76-5.72,5.26-5.72a5.38,5.38,0,0,1,3.75,1.25,4.46,4.46,0,0,1,1.39,3.51v.15H56.9v-.13a2.37,2.37,0,0,0-.64-1.75,2.4,2.4,0,0,0-1.8-.64,2.2,2.2,0,0,0-1.9.81A4.65,4.65,0,0,0,52,115.5v3.1a4.16,4.16,0,0,0,.61,2.54,2.28,2.28,0,0,0,1.93.79,2.36,2.36,0,0,0,1.77-.63,2.31,2.31,0,0,0,.62-1.7v-.17h2.68v.15a4.52,4.52,0,0,1-1.37,3.54,5.41,5.41,0,0,1-3.77,1.24c-3.48,0-5.22-1.9-5.22-5.72Z"/><path class="cls-1" d="M63.87,121.41,63,124.2H60.12l5.1-14.35h2.22l5.12,14.35H69.67l-.87-2.79Zm2.45-7.78-1.73,5.51h3.48Z"/><path class="cls-1" d="M83.94,114.36a4.19,4.19,0,0,1-1.26,3.19,4.77,4.77,0,0,1-3.44,1.2H76.6v5.45H73.87V109.85h5.37a4.77,4.77,0,0,1,3.44,1.2A4.38,4.38,0,0,1,83.94,114.36Zm-2.72,0a2.15,2.15,0,0,0-.56-1.59,2.07,2.07,0,0,0-1.55-.55H76.6v4.14h2.51a2.19,2.19,0,0,0,1.54-.52A1.91,1.91,0,0,0,81.22,114.36Z"/><path class="cls-1" d="M85,119.83h2.58a2.41,2.41,0,0,0,.76,1.67,2.84,2.84,0,0,0,1.82.49q2.31,0,2.31-1.89a1.72,1.72,0,0,0-.46-1.3,2.68,2.68,0,0,0-1.46-.61L89.16,118q-3.89-.64-3.89-4a4,4,0,0,1,1.32-3.16,5.14,5.14,0,0,1,3.51-1.16,4.82,4.82,0,0,1,3.36,1.12,4.6,4.6,0,0,1,1.4,3.16H92.24a2.11,2.11,0,0,0-.6-1.52,2.9,2.9,0,0,0-3.18,0,1.71,1.71,0,0,0-.55,1.35,1.52,1.52,0,0,0,.48,1.18,3.08,3.08,0,0,0,1.5.63l1.52.27q3.7.66,3.7,4a4.07,4.07,0,0,1-1.38,3.31A5.7,5.7,0,0,1,90,124.32a5.2,5.2,0,0,1-3.59-1.15A4.72,4.72,0,0,1,85,119.83Z"/><path class="cls-1" d="M102.37,112.22v12H99.63v-12H96v-2.37H106v2.37Z"/><path class="cls-1" d="M106.57,115.36c0-3.82,1.74-5.72,5.22-5.72a5.21,5.21,0,0,1,3.79,1.34c.93.89,1.39,2.35,1.39,4.38v3.28c0,2-.47,3.49-1.42,4.38a5.35,5.35,0,0,1-3.84,1.34c-3.42,0-5.14-1.9-5.14-5.72Zm7.68,3.24v-3.1a4.57,4.57,0,0,0-.6-2.65,2.15,2.15,0,0,0-1.86-.82,2.19,2.19,0,0,0-1.89.8,4.63,4.63,0,0,0-.58,2.67v3.1a4.32,4.32,0,0,0,.58,2.55,2.62,2.62,0,0,0,3.75,0A4.27,4.27,0,0,0,114.25,118.6Z"/><path class="cls-1" d="M129.77,124.2H127l-5.28-9v9H119V109.85h2.72l5.28,9v-9h2.73Z"/><path class="cls-1" d="M135,115.77h5.45v2.37H135v3.68h6.38v2.38h-9.11V109.85h9.11v2.37H135Z"/><path class="cls-2" d="M156.88,124.2h-2.73v-6.08h-4.76v6.08h-2.72V109.85h2.72v5.9h4.76v-5.9h2.73Z"/><path class="cls-2" d="M164.39,109.85a5.2,5.2,0,0,1,3.77,1.33c.93.88,1.39,2.34,1.39,4.36v2.94c0,2-.47,3.48-1.42,4.37a5.3,5.3,0,0,1-3.82,1.35h-5V109.85ZM166.21,121a4.24,4.24,0,0,0,.61-2.55v-2.77a4.57,4.57,0,0,0-.6-2.65,2.14,2.14,0,0,0-1.85-.82h-2.31v9.6h2.31A2.16,2.16,0,0,0,166.21,121Z"/><path class="cls-2" d="M171.11,119.83h2.58a2.41,2.41,0,0,0,.76,1.67,2.84,2.84,0,0,0,1.82.49q2.31,0,2.31-1.89a1.76,1.76,0,0,0-.46-1.3,2.68,2.68,0,0,0-1.46-.61l-1.35-.23q-3.88-.64-3.89-4a4,4,0,0,1,1.32-3.16,5.14,5.14,0,0,1,3.51-1.16,4.82,4.82,0,0,1,3.36,1.12,4.6,4.6,0,0,1,1.4,3.16h-2.62a2.11,2.11,0,0,0-.6-1.52,2.31,2.31,0,0,0-1.58-.47,2.36,2.36,0,0,0-1.61.48,1.74,1.74,0,0,0-.54,1.35,1.52,1.52,0,0,0,.48,1.18,3.08,3.08,0,0,0,1.5.63l1.52.27q3.7.66,3.7,4a4.07,4.07,0,0,1-1.38,3.31,5.72,5.72,0,0,1-3.74,1.14,5.16,5.16,0,0,1-3.59-1.15A4.72,4.72,0,0,1,171.11,119.83Z"/><path class="cls-2" d="M186.07,109.85V124.2h-2.73V109.85Z"/><path class="cls-2" d="M193.22,115.36c0-3.82,1.76-5.72,5.26-5.72a5.38,5.38,0,0,1,3.75,1.25,4.46,4.46,0,0,1,1.39,3.51v.15H200.9v-.13a2.37,2.37,0,0,0-.64-1.75,2.4,2.4,0,0,0-1.8-.64,2.2,2.2,0,0,0-1.9.81,4.65,4.65,0,0,0-.59,2.66v3.1a4.16,4.16,0,0,0,.61,2.54,2.28,2.28,0,0,0,1.93.79,2.36,2.36,0,0,0,1.77-.63,2.31,2.31,0,0,0,.62-1.7v-.17h2.68v.15a4.52,4.52,0,0,1-1.37,3.54,5.41,5.41,0,0,1-3.77,1.24c-3.48,0-5.22-1.9-5.22-5.72Z"/><path class="cls-2" d="M207.87,121.41,207,124.2h-2.87l5.1-14.35h2.22l5.12,14.35h-2.89l-.87-2.79Zm2.45-7.78-1.73,5.51h3.48Z"/><path class="cls-2" d="M227.94,114.36a4.19,4.19,0,0,1-1.26,3.19,4.77,4.77,0,0,1-3.44,1.2H220.6v5.45h-2.73V109.85h5.37a4.77,4.77,0,0,1,3.44,1.2A4.38,4.38,0,0,1,227.94,114.36Zm-2.72,0a2.15,2.15,0,0,0-.56-1.59,2.07,2.07,0,0,0-1.55-.55H220.6v4.14h2.51a2.19,2.19,0,0,0,1.54-.52A1.91,1.91,0,0,0,225.22,114.36Z"/><path class="cls-2" d="M229,119.83h2.58a2.41,2.41,0,0,0,.76,1.67,2.84,2.84,0,0,0,1.82.49q2.31,0,2.31-1.89a1.72,1.72,0,0,0-.46-1.3,2.68,2.68,0,0,0-1.46-.61l-1.35-.23q-3.89-.64-3.89-4a4,4,0,0,1,1.32-3.16,5.14,5.14,0,0,1,3.51-1.16,4.82,4.82,0,0,1,3.36,1.12,4.6,4.6,0,0,1,1.4,3.16h-2.62a2.11,2.11,0,0,0-.6-1.52,2.9,2.9,0,0,0-3.18,0,1.71,1.71,0,0,0-.55,1.35,1.52,1.52,0,0,0,.48,1.18,3.08,3.08,0,0,0,1.5.63l1.52.27q3.71.66,3.7,4a4.07,4.07,0,0,1-1.38,3.31,5.7,5.7,0,0,1-3.74,1.14,5.2,5.2,0,0,1-3.59-1.15A4.72,4.72,0,0,1,229,119.83Z"/><path class="cls-2" d="M246.37,112.22v12h-2.74v-12H240v-2.37H250v2.37Z"/><path class="cls-2" d="M250.57,115.36c0-3.82,1.74-5.72,5.22-5.72a5.21,5.21,0,0,1,3.79,1.34c.93.89,1.39,2.35,1.39,4.38v3.28c0,2-.47,3.49-1.42,4.38a5.35,5.35,0,0,1-3.84,1.34c-3.42,0-5.14-1.9-5.14-5.72Zm7.68,3.24v-3.1a4.57,4.57,0,0,0-.6-2.65,2.15,2.15,0,0,0-1.86-.82,2.19,2.19,0,0,0-1.89.8,4.63,4.63,0,0,0-.58,2.67v3.1a4.32,4.32,0,0,0,.58,2.55,2.62,2.62,0,0,0,3.75,0A4.27,4.27,0,0,0,258.25,118.6Z"/><path class="cls-2" d="M273.77,124.2H271l-5.28-9v9H263V109.85h2.72l5.28,9v-9h2.73Z"/><path class="cls-2" d="M279,115.77h5.45v2.37H279v3.68h6.38v2.38h-9.11V109.85h9.11v2.37H279Z"/><path class="cls-2" d="M12.88,142.2H10.15v-6.08H5.39v6.08H2.67V127.85H5.39v5.9h4.76v-5.9h2.73Z"/><path class="cls-2" d="M20.39,127.85a5.2,5.2,0,0,1,3.77,1.33c.93.88,1.39,2.34,1.39,4.36v2.94c0,2-.47,3.48-1.42,4.37a5.3,5.3,0,0,1-3.82,1.35h-5V127.85ZM22.21,139a4.24,4.24,0,0,0,.61-2.55v-2.77a4.57,4.57,0,0,0-.6-2.65,2.14,2.14,0,0,0-1.85-.82H18.06v9.6h2.31A2.16,2.16,0,0,0,22.21,139Z"/><path class="cls-2" d="M27.11,137.83h2.58a2.41,2.41,0,0,0,.76,1.67,2.84,2.84,0,0,0,1.82.49q2.31,0,2.31-1.89a1.76,1.76,0,0,0-.46-1.3,2.68,2.68,0,0,0-1.46-.61L31.31,136q-3.89-.65-3.89-4a4,4,0,0,1,1.32-3.16,5.14,5.14,0,0,1,3.51-1.16,4.82,4.82,0,0,1,3.36,1.12,4.6,4.6,0,0,1,1.4,3.16H34.39a2.11,2.11,0,0,0-.6-1.52,2.31,2.31,0,0,0-1.58-.47,2.36,2.36,0,0,0-1.61.48,1.74,1.74,0,0,0-.54,1.35,1.52,1.52,0,0,0,.48,1.18,3.08,3.08,0,0,0,1.5.63l1.52.27q3.7.66,3.7,4a4.07,4.07,0,0,1-1.38,3.31,5.72,5.72,0,0,1-3.74,1.14,5.16,5.16,0,0,1-3.59-1.15A4.72,4.72,0,0,1,27.11,137.83Z"/><path class="cls-2" d="M42.07,127.85V142.2H39.34V127.85Z"/><path class="cls-2" d="M49.22,133.36c0-3.82,1.76-5.72,5.26-5.72a5.38,5.38,0,0,1,3.75,1.25,4.46,4.46,0,0,1,1.39,3.51v.15H56.9v-.13a2.37,2.37,0,0,0-.64-1.75,2.4,2.4,0,0,0-1.8-.64,2.2,2.2,0,0,0-1.9.81A4.65,4.65,0,0,0,52,133.5v3.1a4.16,4.16,0,0,0,.61,2.54,2.28,2.28,0,0,0,1.93.79,2.36,2.36,0,0,0,1.77-.63,2.31,2.31,0,0,0,.62-1.7v-.17h2.68v.15a4.52,4.52,0,0,1-1.37,3.54,5.41,5.41,0,0,1-3.77,1.24c-3.48,0-5.22-1.9-5.22-5.72Z"/><path class="cls-2" d="M63.87,139.41,63,142.2H60.12l5.1-14.35h2.22l5.12,14.35H69.67l-.87-2.79Zm2.45-7.78-1.73,5.51h3.48Z"/><path class="cls-2" d="M83.94,132.36a4.19,4.19,0,0,1-1.26,3.19,4.77,4.77,0,0,1-3.44,1.2H76.6v5.45H73.87V127.85h5.37a4.77,4.77,0,0,1,3.44,1.2A4.38,4.38,0,0,1,83.94,132.36Zm-2.72,0a2.15,2.15,0,0,0-.56-1.59,2.07,2.07,0,0,0-1.55-.55H76.6v4.14h2.51a2.19,2.19,0,0,0,1.54-.52A1.91,1.91,0,0,0,81.22,132.36Z"/><path class="cls-2" d="M85,137.83h2.58a2.41,2.41,0,0,0,.76,1.67,2.84,2.84,0,0,0,1.82.49q2.31,0,2.31-1.89a1.72,1.72,0,0,0-.46-1.3,2.68,2.68,0,0,0-1.46-.61L89.16,136q-3.89-.65-3.89-4a4,4,0,0,1,1.32-3.16,5.14,5.14,0,0,1,3.51-1.16,4.82,4.82,0,0,1,3.36,1.12,4.6,4.6,0,0,1,1.4,3.16H92.24a2.11,2.11,0,0,0-.6-1.52,2.9,2.9,0,0,0-3.18,0,1.71,1.71,0,0,0-.55,1.35,1.52,1.52,0,0,0,.48,1.18,3.08,3.08,0,0,0,1.5.63l1.52.27q3.7.66,3.7,4a4.07,4.07,0,0,1-1.38,3.31A5.7,5.7,0,0,1,90,142.32a5.2,5.2,0,0,1-3.59-1.15A4.72,4.72,0,0,1,85,137.83Z"/><path class="cls-2" d="M102.37,130.22v12H99.63v-12H96v-2.37H106v2.37Z"/><path class="cls-2" d="M106.57,133.36c0-3.82,1.74-5.72,5.22-5.72a5.21,5.21,0,0,1,3.79,1.34c.93.89,1.39,2.35,1.39,4.38v3.28c0,2-.47,3.49-1.42,4.38a5.35,5.35,0,0,1-3.84,1.34c-3.42,0-5.14-1.9-5.14-5.72Zm7.68,3.24v-3.1a4.57,4.57,0,0,0-.6-2.65,2.15,2.15,0,0,0-1.86-.82,2.19,2.19,0,0,0-1.89.8,4.63,4.63,0,0,0-.58,2.67v3.1a4.32,4.32,0,0,0,.58,2.55,2.62,2.62,0,0,0,3.75,0A4.27,4.27,0,0,0,114.25,136.6Z"/><path class="cls-2" d="M129.77,142.2H127l-5.28-9v9H119V127.85h2.72l5.28,9v-9h2.73Z"/><path class="cls-2" d="M135,133.77h5.45v2.37H135v3.68h6.38v2.38h-9.11V127.85h9.11v2.37H135Z"/><path class="cls-1" d="M156.88,142.2h-2.73v-6.08h-4.76v6.08h-2.72V127.85h2.72v5.9h4.76v-5.9h2.73Z"/><path class="cls-1" d="M164.39,127.85a5.2,5.2,0,0,1,3.77,1.33c.93.88,1.39,2.34,1.39,4.36v2.94c0,2-.47,3.48-1.42,4.37a5.3,5.3,0,0,1-3.82,1.35h-5V127.85ZM166.21,139a4.24,4.24,0,0,0,.61-2.55v-2.77a4.57,4.57,0,0,0-.6-2.65,2.14,2.14,0,0,0-1.85-.82h-2.31v9.6h2.31A2.16,2.16,0,0,0,166.21,139Z"/><path class="cls-1" d="M171.11,137.83h2.58a2.41,2.41,0,0,0,.76,1.67,2.84,2.84,0,0,0,1.82.49q2.31,0,2.31-1.89a1.76,1.76,0,0,0-.46-1.3,2.68,2.68,0,0,0-1.46-.61l-1.35-.23q-3.88-.65-3.89-4a4,4,0,0,1,1.32-3.16,5.14,5.14,0,0,1,3.51-1.16,4.82,4.82,0,0,1,3.36,1.12,4.6,4.6,0,0,1,1.4,3.16h-2.62a2.11,2.11,0,0,0-.6-1.52,2.31,2.31,0,0,0-1.58-.47,2.36,2.36,0,0,0-1.61.48,1.74,1.74,0,0,0-.54,1.35,1.52,1.52,0,0,0,.48,1.18,3.08,3.08,0,0,0,1.5.63l1.52.27q3.7.66,3.7,4a4.07,4.07,0,0,1-1.38,3.31,5.72,5.72,0,0,1-3.74,1.14,5.16,5.16,0,0,1-3.59-1.15A4.72,4.72,0,0,1,171.11,137.83Z"/><path class="cls-1" d="M186.07,127.85V142.2h-2.73V127.85Z"/><path class="cls-1" d="M193.22,133.36c0-3.82,1.76-5.72,5.26-5.72a5.38,5.38,0,0,1,3.75,1.25,4.46,4.46,0,0,1,1.39,3.51v.15H200.9v-.13a2.37,2.37,0,0,0-.64-1.75,2.4,2.4,0,0,0-1.8-.64,2.2,2.2,0,0,0-1.9.81,4.65,4.65,0,0,0-.59,2.66v3.1a4.16,4.16,0,0,0,.61,2.54,2.28,2.28,0,0,0,1.93.79,2.36,2.36,0,0,0,1.77-.63,2.31,2.31,0,0,0,.62-1.7v-.17h2.68v.15a4.52,4.52,0,0,1-1.37,3.54,5.41,5.41,0,0,1-3.77,1.24c-3.48,0-5.22-1.9-5.22-5.72Z"/><path class="cls-1" d="M207.87,139.41,207,142.2h-2.87l5.1-14.35h2.22l5.12,14.35h-2.89l-.87-2.79Zm2.45-7.78-1.73,5.51h3.48Z"/><path class="cls-1" d="M227.94,132.36a4.19,4.19,0,0,1-1.26,3.19,4.77,4.77,0,0,1-3.44,1.2H220.6v5.45h-2.73V127.85h5.37a4.77,4.77,0,0,1,3.44,1.2A4.38,4.38,0,0,1,227.94,132.36Zm-2.72,0a2.15,2.15,0,0,0-.56-1.59,2.07,2.07,0,0,0-1.55-.55H220.6v4.14h2.51a2.19,2.19,0,0,0,1.54-.52A1.91,1.91,0,0,0,225.22,132.36Z"/><path class="cls-1" d="M229,137.83h2.58a2.41,2.41,0,0,0,.76,1.67,2.84,2.84,0,0,0,1.82.49q2.31,0,2.31-1.89a1.72,1.72,0,0,0-.46-1.3,2.68,2.68,0,0,0-1.46-.61l-1.35-.23q-3.89-.65-3.89-4a4,4,0,0,1,1.32-3.16,5.14,5.14,0,0,1,3.51-1.16,4.82,4.82,0,0,1,3.36,1.12,4.6,4.6,0,0,1,1.4,3.16h-2.62a2.11,2.11,0,0,0-.6-1.52,2.9,2.9,0,0,0-3.18,0,1.71,1.71,0,0,0-.55,1.35,1.52,1.52,0,0,0,.48,1.18,3.08,3.08,0,0,0,1.5.63l1.52.27q3.71.66,3.7,4a4.07,4.07,0,0,1-1.38,3.31,5.7,5.7,0,0,1-3.74,1.14,5.2,5.2,0,0,1-3.59-1.15A4.72,4.72,0,0,1,229,137.83Z"/><path class="cls-1" d="M246.37,130.22v12h-2.74v-12H240v-2.37H250v2.37Z"/><path class="cls-1" d="M250.57,133.36c0-3.82,1.74-5.72,5.22-5.72a5.21,5.21,0,0,1,3.79,1.34c.93.89,1.39,2.35,1.39,4.38v3.28c0,2-.47,3.49-1.42,4.38a5.35,5.35,0,0,1-3.84,1.34c-3.42,0-5.14-1.9-5.14-5.72Zm7.68,3.24v-3.1a4.57,4.57,0,0,0-.6-2.65,2.15,2.15,0,0,0-1.86-.82,2.19,2.19,0,0,0-1.89.8,4.63,4.63,0,0,0-.58,2.67v3.1a4.32,4.32,0,0,0,.58,2.55,2.62,2.62,0,0,0,3.75,0A4.27,4.27,0,0,0,258.25,136.6Z"/><path class="cls-1" d="M273.77,142.2H271l-5.28-9v9H263V127.85h2.72l5.28,9v-9h2.73Z"/><path class="cls-1" d="M279,133.77h5.45v2.37H279v3.68h6.38v2.38h-9.11V127.85h9.11v2.37H279Z"/><path class="cls-1" d="M12.88,160.2H10.15v-6.08H5.39v6.08H2.67V145.85H5.39v5.9h4.76v-5.9h2.73Z"/><path class="cls-1" d="M20.39,145.85a5.2,5.2,0,0,1,3.77,1.33c.93.88,1.39,2.34,1.39,4.36v2.94c0,2-.47,3.48-1.42,4.37a5.3,5.3,0,0,1-3.82,1.35h-5V145.85ZM22.21,157a4.24,4.24,0,0,0,.61-2.55v-2.77a4.57,4.57,0,0,0-.6-2.65,2.14,2.14,0,0,0-1.85-.82H18.06v9.6h2.31A2.16,2.16,0,0,0,22.21,157Z"/><path class="cls-1" d="M27.11,155.83h2.58a2.41,2.41,0,0,0,.76,1.67,2.84,2.84,0,0,0,1.82.49q2.31,0,2.31-1.89a1.76,1.76,0,0,0-.46-1.3,2.68,2.68,0,0,0-1.46-.61L31.31,154q-3.89-.65-3.89-4a4,4,0,0,1,1.32-3.16,5.14,5.14,0,0,1,3.51-1.16,4.82,4.82,0,0,1,3.36,1.12,4.6,4.6,0,0,1,1.4,3.16H34.39a2.11,2.11,0,0,0-.6-1.52,2.31,2.31,0,0,0-1.58-.47,2.36,2.36,0,0,0-1.61.48,1.74,1.74,0,0,0-.54,1.35,1.52,1.52,0,0,0,.48,1.18,3.08,3.08,0,0,0,1.5.63l1.52.27q3.7.66,3.7,4a4.07,4.07,0,0,1-1.38,3.31,5.72,5.72,0,0,1-3.74,1.14,5.16,5.16,0,0,1-3.59-1.15A4.72,4.72,0,0,1,27.11,155.83Z"/><path class="cls-1" d="M42.07,145.85V160.2H39.34V145.85Z"/><path class="cls-1" d="M49.22,151.36c0-3.82,1.76-5.72,5.26-5.72a5.38,5.38,0,0,1,3.75,1.25,4.46,4.46,0,0,1,1.39,3.51v.15H56.9v-.13a2.37,2.37,0,0,0-.64-1.75,2.4,2.4,0,0,0-1.8-.64,2.2,2.2,0,0,0-1.9.81A4.65,4.65,0,0,0,52,151.5v3.1a4.16,4.16,0,0,0,.61,2.54,2.28,2.28,0,0,0,1.93.79,2.36,2.36,0,0,0,1.77-.63,2.31,2.31,0,0,0,.62-1.7v-.17h2.68v.15a4.52,4.52,0,0,1-1.37,3.54,5.41,5.41,0,0,1-3.77,1.24c-3.48,0-5.22-1.9-5.22-5.72Z"/><path class="cls-1" d="M63.87,157.41,63,160.2H60.12l5.1-14.35h2.22l5.12,14.35H69.67l-.87-2.79Zm2.45-7.78-1.73,5.51h3.48Z"/><path class="cls-1" d="M83.94,150.36a4.19,4.19,0,0,1-1.26,3.19,4.77,4.77,0,0,1-3.44,1.2H76.6v5.45H73.87V145.85h5.37a4.77,4.77,0,0,1,3.44,1.2A4.38,4.38,0,0,1,83.94,150.36Zm-2.72,0a2.15,2.15,0,0,0-.56-1.59,2.07,2.07,0,0,0-1.55-.55H76.6v4.14h2.51a2.19,2.19,0,0,0,1.54-.52A1.91,1.91,0,0,0,81.22,150.36Z"/><path class="cls-1" d="M85,155.83h2.58a2.41,2.41,0,0,0,.76,1.67,2.84,2.84,0,0,0,1.82.49q2.31,0,2.31-1.89a1.72,1.72,0,0,0-.46-1.3,2.68,2.68,0,0,0-1.46-.61L89.16,154q-3.89-.65-3.89-4a4,4,0,0,1,1.32-3.16,5.14,5.14,0,0,1,3.51-1.16,4.82,4.82,0,0,1,3.36,1.12,4.6,4.6,0,0,1,1.4,3.16H92.24a2.11,2.11,0,0,0-.6-1.52,2.9,2.9,0,0,0-3.18,0,1.71,1.71,0,0,0-.55,1.35,1.52,1.52,0,0,0,.48,1.18,3.08,3.08,0,0,0,1.5.63l1.52.27q3.7.66,3.7,4a4.07,4.07,0,0,1-1.38,3.31A5.7,5.7,0,0,1,90,160.32a5.2,5.2,0,0,1-3.59-1.15A4.72,4.72,0,0,1,85,155.83Z"/><path class="cls-1" d="M102.37,148.22v12H99.63v-12H96v-2.37H106v2.37Z"/><path class="cls-1" d="M106.57,151.36c0-3.82,1.74-5.72,5.22-5.72a5.21,5.21,0,0,1,3.79,1.34c.93.89,1.39,2.35,1.39,4.38v3.28c0,2-.47,3.49-1.42,4.38a5.35,5.35,0,0,1-3.84,1.34c-3.42,0-5.14-1.9-5.14-5.72Zm7.68,3.24v-3.1a4.57,4.57,0,0,0-.6-2.65,2.15,2.15,0,0,0-1.86-.82,2.19,2.19,0,0,0-1.89.8,4.63,4.63,0,0,0-.58,2.67v3.1a4.32,4.32,0,0,0,.58,2.55,2.62,2.62,0,0,0,3.75,0A4.27,4.27,0,0,0,114.25,154.6Z"/><path class="cls-1" d="M129.77,160.2H127l-5.28-9v9H119V145.85h2.72l5.28,9v-9h2.73Z"/><path class="cls-1" d="M135,151.77h5.45v2.37H135v3.68h6.38v2.38h-9.11V145.85h9.11v2.37H135Z"/><path class="cls-2" d="M156.88,160.2h-2.73v-6.08h-4.76v6.08h-2.72V145.85h2.72v5.9h4.76v-5.9h2.73Z"/><path class="cls-2" d="M164.39,145.85a5.2,5.2,0,0,1,3.77,1.33c.93.88,1.39,2.34,1.39,4.36v2.94c0,2-.47,3.48-1.42,4.37a5.3,5.3,0,0,1-3.82,1.35h-5V145.85ZM166.21,157a4.24,4.24,0,0,0,.61-2.55v-2.77a4.57,4.57,0,0,0-.6-2.65,2.14,2.14,0,0,0-1.85-.82h-2.31v9.6h2.31A2.16,2.16,0,0,0,166.21,157Z"/><path class="cls-2" d="M171.11,155.83h2.58a2.41,2.41,0,0,0,.76,1.67,2.84,2.84,0,0,0,1.82.49q2.31,0,2.31-1.89a1.76,1.76,0,0,0-.46-1.3,2.68,2.68,0,0,0-1.46-.61l-1.35-.23q-3.88-.65-3.89-4a4,4,0,0,1,1.32-3.16,5.14,5.14,0,0,1,3.51-1.16,4.82,4.82,0,0,1,3.36,1.12,4.6,4.6,0,0,1,1.4,3.16h-2.62a2.11,2.11,0,0,0-.6-1.52,2.31,2.31,0,0,0-1.58-.47,2.36,2.36,0,0,0-1.61.48,1.74,1.74,0,0,0-.54,1.35,1.52,1.52,0,0,0,.48,1.18,3.08,3.08,0,0,0,1.5.63l1.52.27q3.7.66,3.7,4a4.07,4.07,0,0,1-1.38,3.31,5.72,5.72,0,0,1-3.74,1.14,5.16,5.16,0,0,1-3.59-1.15A4.72,4.72,0,0,1,171.11,155.83Z"/><path class="cls-2" d="M186.07,145.85V160.2h-2.73V145.85Z"/><path class="cls-2" d="M193.22,151.36c0-3.82,1.76-5.72,5.26-5.72a5.38,5.38,0,0,1,3.75,1.25,4.46,4.46,0,0,1,1.39,3.51v.15H200.9v-.13a2.37,2.37,0,0,0-.64-1.75,2.4,2.4,0,0,0-1.8-.64,2.2,2.2,0,0,0-1.9.81,4.65,4.65,0,0,0-.59,2.66v3.1a4.16,4.16,0,0,0,.61,2.54,2.28,2.28,0,0,0,1.93.79,2.36,2.36,0,0,0,1.77-.63,2.31,2.31,0,0,0,.62-1.7v-.17h2.68v.15a4.52,4.52,0,0,1-1.37,3.54,5.41,5.41,0,0,1-3.77,1.24c-3.48,0-5.22-1.9-5.22-5.72Z"/><path class="cls-2" d="M207.87,157.41,207,160.2h-2.87l5.1-14.35h2.22l5.12,14.35h-2.89l-.87-2.79Zm2.45-7.78-1.73,5.51h3.48Z"/><path class="cls-2" d="M227.94,150.36a4.19,4.19,0,0,1-1.26,3.19,4.77,4.77,0,0,1-3.44,1.2H220.6v5.45h-2.73V145.85h5.37a4.77,4.77,0,0,1,3.44,1.2A4.38,4.38,0,0,1,227.94,150.36Zm-2.72,0a2.15,2.15,0,0,0-.56-1.59,2.07,2.07,0,0,0-1.55-.55H220.6v4.14h2.51a2.19,2.19,0,0,0,1.54-.52A1.91,1.91,0,0,0,225.22,150.36Z"/><path class="cls-2" d="M229,155.83h2.58a2.41,2.41,0,0,0,.76,1.67,2.84,2.84,0,0,0,1.82.49q2.31,0,2.31-1.89a1.72,1.72,0,0,0-.46-1.3,2.68,2.68,0,0,0-1.46-.61l-1.35-.23q-3.89-.65-3.89-4a4,4,0,0,1,1.32-3.16,5.14,5.14,0,0,1,3.51-1.16,4.82,4.82,0,0,1,3.36,1.12,4.6,4.6,0,0,1,1.4,3.16h-2.62a2.11,2.11,0,0,0-.6-1.52,2.9,2.9,0,0,0-3.18,0,1.71,1.71,0,0,0-.55,1.35,1.52,1.52,0,0,0,.48,1.18,3.08,3.08,0,0,0,1.5.63l1.52.27q3.71.66,3.7,4a4.07,4.07,0,0,1-1.38,3.31,5.7,5.7,0,0,1-3.74,1.14,5.2,5.2,0,0,1-3.59-1.15A4.72,4.72,0,0,1,229,155.83Z"/><path class="cls-2" d="M246.37,148.22v12h-2.74v-12H240v-2.37H250v2.37Z"/><path class="cls-2" d="M250.57,151.36c0-3.82,1.74-5.72,5.22-5.72a5.21,5.21,0,0,1,3.79,1.34c.93.89,1.39,2.35,1.39,4.38v3.28c0,2-.47,3.49-1.42,4.38a5.35,5.35,0,0,1-3.84,1.34c-3.42,0-5.14-1.9-5.14-5.72Zm7.68,3.24v-3.1a4.57,4.57,0,0,0-.6-2.65,2.15,2.15,0,0,0-1.86-.82,2.19,2.19,0,0,0-1.89.8,4.63,4.63,0,0,0-.58,2.67v3.1a4.32,4.32,0,0,0,.58,2.55,2.62,2.62,0,0,0,3.75,0A4.27,4.27,0,0,0,258.25,154.6Z"/><path class="cls-2" d="M273.77,160.2H271l-5.28-9v9H263V145.85h2.72l5.28,9v-9h2.73Z"/><path class="cls-2" d="M279,151.77h5.45v2.37H279v3.68h6.38v2.38h-9.11V145.85h9.11v2.37H279Z"/><path class="cls-2" d="M12.88,178.2H10.15v-6.08H5.39v6.08H2.67V163.85H5.39v5.9h4.76v-5.9h2.73Z"/><path class="cls-2" d="M20.39,163.85a5.2,5.2,0,0,1,3.77,1.33c.93.88,1.39,2.34,1.39,4.36v2.94c0,2-.47,3.48-1.42,4.37a5.3,5.3,0,0,1-3.82,1.35h-5V163.85ZM22.21,175a4.24,4.24,0,0,0,.61-2.55v-2.77a4.57,4.57,0,0,0-.6-2.65,2.14,2.14,0,0,0-1.85-.82H18.06v9.6h2.31A2.16,2.16,0,0,0,22.21,175Z"/><path class="cls-2" d="M27.11,173.83h2.58a2.41,2.41,0,0,0,.76,1.67,2.84,2.84,0,0,0,1.82.49q2.31,0,2.31-1.89a1.76,1.76,0,0,0-.46-1.3,2.68,2.68,0,0,0-1.46-.61L31.31,172q-3.89-.65-3.89-4a4,4,0,0,1,1.32-3.16,5.14,5.14,0,0,1,3.51-1.16,4.82,4.82,0,0,1,3.36,1.12,4.6,4.6,0,0,1,1.4,3.16H34.39a2.11,2.11,0,0,0-.6-1.52,2.31,2.31,0,0,0-1.58-.47,2.36,2.36,0,0,0-1.61.48,1.74,1.74,0,0,0-.54,1.35,1.52,1.52,0,0,0,.48,1.18,3.08,3.08,0,0,0,1.5.63l1.52.27q3.7.66,3.7,4a4.07,4.07,0,0,1-1.38,3.31,5.72,5.72,0,0,1-3.74,1.14,5.16,5.16,0,0,1-3.59-1.15A4.72,4.72,0,0,1,27.11,173.83Z"/><path class="cls-2" d="M42.07,163.85V178.2H39.34V163.85Z"/><path class="cls-2" d="M49.22,169.36c0-3.82,1.76-5.72,5.26-5.72a5.38,5.38,0,0,1,3.75,1.25,4.46,4.46,0,0,1,1.39,3.51v.15H56.9v-.13a2.37,2.37,0,0,0-.64-1.75,2.4,2.4,0,0,0-1.8-.64,2.2,2.2,0,0,0-1.9.81A4.65,4.65,0,0,0,52,169.5v3.1a4.16,4.16,0,0,0,.61,2.54,2.28,2.28,0,0,0,1.93.79,2.36,2.36,0,0,0,1.77-.63,2.31,2.31,0,0,0,.62-1.7v-.17h2.68v.15a4.52,4.52,0,0,1-1.37,3.54,5.41,5.41,0,0,1-3.77,1.24c-3.48,0-5.22-1.9-5.22-5.72Z"/><path class="cls-2" d="M63.87,175.41,63,178.2H60.12l5.1-14.35h2.22l5.12,14.35H69.67l-.87-2.79Zm2.45-7.78-1.73,5.51h3.48Z"/><path class="cls-2" d="M83.94,168.36a4.19,4.19,0,0,1-1.26,3.19,4.77,4.77,0,0,1-3.44,1.2H76.6v5.45H73.87V163.85h5.37a4.77,4.77,0,0,1,3.44,1.2A4.38,4.38,0,0,1,83.94,168.36Zm-2.72,0a2.15,2.15,0,0,0-.56-1.59,2.07,2.07,0,0,0-1.55-.55H76.6v4.14h2.51a2.19,2.19,0,0,0,1.54-.52A1.91,1.91,0,0,0,81.22,168.36Z"/><path class="cls-2" d="M85,173.83h2.58a2.41,2.41,0,0,0,.76,1.67,2.84,2.84,0,0,0,1.82.49q2.31,0,2.31-1.89a1.72,1.72,0,0,0-.46-1.3,2.68,2.68,0,0,0-1.46-.61L89.16,172q-3.89-.65-3.89-4a4,4,0,0,1,1.32-3.16,5.14,5.14,0,0,1,3.51-1.16,4.82,4.82,0,0,1,3.36,1.12,4.6,4.6,0,0,1,1.4,3.16H92.24a2.11,2.11,0,0,0-.6-1.52,2.9,2.9,0,0,0-3.18,0,1.71,1.71,0,0,0-.55,1.35,1.52,1.52,0,0,0,.48,1.18,3.08,3.08,0,0,0,1.5.63l1.52.27q3.7.66,3.7,4a4.07,4.07,0,0,1-1.38,3.31A5.7,5.7,0,0,1,90,178.32a5.2,5.2,0,0,1-3.59-1.15A4.72,4.72,0,0,1,85,173.83Z"/><path class="cls-2" d="M102.37,166.22v12H99.63v-12H96v-2.37H106v2.37Z"/><path class="cls-2" d="M106.57,169.36c0-3.82,1.74-5.72,5.22-5.72a5.21,5.21,0,0,1,3.79,1.34c.93.89,1.39,2.35,1.39,4.38v3.28c0,2-.47,3.49-1.42,4.38a5.35,5.35,0,0,1-3.84,1.34c-3.42,0-5.14-1.9-5.14-5.72Zm7.68,3.24v-3.1a4.57,4.57,0,0,0-.6-2.65,2.15,2.15,0,0,0-1.86-.82,2.19,2.19,0,0,0-1.89.8,4.63,4.63,0,0,0-.58,2.67v3.1a4.32,4.32,0,0,0,.58,2.55,2.62,2.62,0,0,0,3.75,0A4.27,4.27,0,0,0,114.25,172.6Z"/><path class="cls-2" d="M129.77,178.2H127l-5.28-9v9H119V163.85h2.72l5.28,9v-9h2.73Z"/><path class="cls-2" d="M135,169.77h5.45v2.37H135v3.68h6.38v2.38h-9.11V163.85h9.11v2.37H135Z"/><path class="cls-1" d="M156.88,178.2h-2.73v-6.08h-4.76v6.08h-2.72V163.85h2.72v5.9h4.76v-5.9h2.73Z"/><path class="cls-1" d="M164.39,163.85a5.2,5.2,0,0,1,3.77,1.33c.93.88,1.39,2.34,1.39,4.36v2.94c0,2-.47,3.48-1.42,4.37a5.3,5.3,0,0,1-3.82,1.35h-5V163.85ZM166.21,175a4.24,4.24,0,0,0,.61-2.55v-2.77a4.57,4.57,0,0,0-.6-2.65,2.14,2.14,0,0,0-1.85-.82h-2.31v9.6h2.31A2.16,2.16,0,0,0,166.21,175Z"/><path class="cls-1" d="M171.11,173.83h2.58a2.41,2.41,0,0,0,.76,1.67,2.84,2.84,0,0,0,1.82.49q2.31,0,2.31-1.89a1.76,1.76,0,0,0-.46-1.3,2.68,2.68,0,0,0-1.46-.61l-1.35-.23q-3.88-.65-3.89-4a4,4,0,0,1,1.32-3.16,5.14,5.14,0,0,1,3.51-1.16,4.82,4.82,0,0,1,3.36,1.12,4.6,4.6,0,0,1,1.4,3.16h-2.62a2.11,2.11,0,0,0-.6-1.52,2.31,2.31,0,0,0-1.58-.47,2.36,2.36,0,0,0-1.61.48,1.74,1.74,0,0,0-.54,1.35,1.52,1.52,0,0,0,.48,1.18,3.08,3.08,0,0,0,1.5.63l1.52.27q3.7.66,3.7,4a4.07,4.07,0,0,1-1.38,3.31,5.72,5.72,0,0,1-3.74,1.14,5.16,5.16,0,0,1-3.59-1.15A4.72,4.72,0,0,1,171.11,173.83Z"/><path class="cls-1" d="M186.07,163.85V178.2h-2.73V163.85Z"/><path class="cls-1" d="M193.22,169.36c0-3.82,1.76-5.72,5.26-5.72a5.38,5.38,0,0,1,3.75,1.25,4.46,4.46,0,0,1,1.39,3.51v.15H200.9v-.13a2.37,2.37,0,0,0-.64-1.75,2.4,2.4,0,0,0-1.8-.64,2.2,2.2,0,0,0-1.9.81,4.65,4.65,0,0,0-.59,2.66v3.1a4.16,4.16,0,0,0,.61,2.54,2.28,2.28,0,0,0,1.93.79,2.36,2.36,0,0,0,1.77-.63,2.31,2.31,0,0,0,.62-1.7v-.17h2.68v.15a4.52,4.52,0,0,1-1.37,3.54,5.41,5.41,0,0,1-3.77,1.24c-3.48,0-5.22-1.9-5.22-5.72Z"/><path class="cls-1" d="M207.87,175.41,207,178.2h-2.87l5.1-14.35h2.22l5.12,14.35h-2.89l-.87-2.79Zm2.45-7.78-1.73,5.51h3.48Z"/><path class="cls-1" d="M227.94,168.36a4.19,4.19,0,0,1-1.26,3.19,4.77,4.77,0,0,1-3.44,1.2H220.6v5.45h-2.73V163.85h5.37a4.77,4.77,0,0,1,3.44,1.2A4.38,4.38,0,0,1,227.94,168.36Zm-2.72,0a2.15,2.15,0,0,0-.56-1.59,2.07,2.07,0,0,0-1.55-.55H220.6v4.14h2.51a2.19,2.19,0,0,0,1.54-.52A1.91,1.91,0,0,0,225.22,168.36Z"/><path class="cls-1" d="M229,173.83h2.58a2.41,2.41,0,0,0,.76,1.67,2.84,2.84,0,0,0,1.82.49q2.31,0,2.31-1.89a1.72,1.72,0,0,0-.46-1.3,2.68,2.68,0,0,0-1.46-.61l-1.35-.23q-3.89-.65-3.89-4a4,4,0,0,1,1.32-3.16,5.14,5.14,0,0,1,3.51-1.16,4.82,4.82,0,0,1,3.36,1.12,4.6,4.6,0,0,1,1.4,3.16h-2.62a2.11,2.11,0,0,0-.6-1.52,2.9,2.9,0,0,0-3.18,0,1.71,1.71,0,0,0-.55,1.35,1.52,1.52,0,0,0,.48,1.18,3.08,3.08,0,0,0,1.5.63l1.52.27q3.71.66,3.7,4a4.07,4.07,0,0,1-1.38,3.31,5.7,5.7,0,0,1-3.74,1.14,5.2,5.2,0,0,1-3.59-1.15A4.72,4.72,0,0,1,229,173.83Z"/><path class="cls-1" d="M246.37,166.22v12h-2.74v-12H240v-2.37H250v2.37Z"/><path class="cls-1" d="M250.57,169.36c0-3.82,1.74-5.72,5.22-5.72a5.21,5.21,0,0,1,3.79,1.34c.93.89,1.39,2.35,1.39,4.38v3.28c0,2-.47,3.49-1.42,4.38a5.35,5.35,0,0,1-3.84,1.34c-3.42,0-5.14-1.9-5.14-5.72Zm7.68,3.24v-3.1a4.57,4.57,0,0,0-.6-2.65,2.15,2.15,0,0,0-1.86-.82,2.19,2.19,0,0,0-1.89.8,4.63,4.63,0,0,0-.58,2.67v3.1a4.32,4.32,0,0,0,.58,2.55,2.62,2.62,0,0,0,3.75,0A4.27,4.27,0,0,0,258.25,172.6Z"/><path class="cls-1" d="M273.77,178.2H271l-5.28-9v9H263V163.85h2.72l5.28,9v-9h2.73Z"/><path class="cls-1" d="M279,169.77h5.45v2.37H279v3.68h6.38v2.38h-9.11V163.85h9.11v2.37H279Z"/><path class="cls-1" d="M12.88,196.2H10.15v-6.08H5.39v6.08H2.67V181.85H5.39v5.9h4.76v-5.9h2.73Z"/><path class="cls-1" d="M20.39,181.85a5.2,5.2,0,0,1,3.77,1.33c.93.88,1.39,2.34,1.39,4.36v2.94c0,2-.47,3.48-1.42,4.37a5.3,5.3,0,0,1-3.82,1.35h-5V181.85ZM22.21,193a4.24,4.24,0,0,0,.61-2.55v-2.77a4.57,4.57,0,0,0-.6-2.65,2.14,2.14,0,0,0-1.85-.82H18.06v9.6h2.31A2.16,2.16,0,0,0,22.21,193Z"/><path class="cls-1" d="M27.11,191.83h2.58a2.41,2.41,0,0,0,.76,1.67,2.84,2.84,0,0,0,1.82.49q2.31,0,2.31-1.89a1.76,1.76,0,0,0-.46-1.3,2.68,2.68,0,0,0-1.46-.61L31.31,190q-3.89-.65-3.89-4a4,4,0,0,1,1.32-3.16,5.14,5.14,0,0,1,3.51-1.16,4.82,4.82,0,0,1,3.36,1.12,4.6,4.6,0,0,1,1.4,3.16H34.39a2.11,2.11,0,0,0-.6-1.52,2.31,2.31,0,0,0-1.58-.47,2.36,2.36,0,0,0-1.61.48,1.74,1.74,0,0,0-.54,1.35,1.52,1.52,0,0,0,.48,1.18,3.08,3.08,0,0,0,1.5.63l1.52.27q3.7.66,3.7,4a4.07,4.07,0,0,1-1.38,3.31,5.72,5.72,0,0,1-3.74,1.14,5.16,5.16,0,0,1-3.59-1.15A4.72,4.72,0,0,1,27.11,191.83Z"/><path class="cls-1" d="M42.07,181.85V196.2H39.34V181.85Z"/><path class="cls-1" d="M49.22,187.36c0-3.82,1.76-5.72,5.26-5.72a5.38,5.38,0,0,1,3.75,1.25,4.46,4.46,0,0,1,1.39,3.51v.15H56.9v-.13a2.37,2.37,0,0,0-.64-1.75,2.4,2.4,0,0,0-1.8-.64,2.2,2.2,0,0,0-1.9.81A4.65,4.65,0,0,0,52,187.5v3.1a4.16,4.16,0,0,0,.61,2.54,2.28,2.28,0,0,0,1.93.79,2.36,2.36,0,0,0,1.77-.63,2.31,2.31,0,0,0,.62-1.7v-.17h2.68v.15a4.52,4.52,0,0,1-1.37,3.54,5.41,5.41,0,0,1-3.77,1.24c-3.48,0-5.22-1.9-5.22-5.72Z"/><path class="cls-1" d="M63.87,193.41,63,196.2H60.12l5.1-14.35h2.22l5.12,14.35H69.67l-.87-2.79Zm2.45-7.78-1.73,5.51h3.48Z"/><path class="cls-1" d="M83.94,186.36a4.19,4.19,0,0,1-1.26,3.19,4.77,4.77,0,0,1-3.44,1.2H76.6v5.45H73.87V181.85h5.37a4.77,4.77,0,0,1,3.44,1.2A4.38,4.38,0,0,1,83.94,186.36Zm-2.72,0a2.15,2.15,0,0,0-.56-1.59,2.07,2.07,0,0,0-1.55-.55H76.6v4.14h2.51a2.19,2.19,0,0,0,1.54-.52A1.91,1.91,0,0,0,81.22,186.36Z"/><path class="cls-1" d="M85,191.83h2.58a2.41,2.41,0,0,0,.76,1.67,2.84,2.84,0,0,0,1.82.49q2.31,0,2.31-1.89a1.72,1.72,0,0,0-.46-1.3,2.68,2.68,0,0,0-1.46-.61L89.16,190q-3.89-.65-3.89-4a4,4,0,0,1,1.32-3.16,5.14,5.14,0,0,1,3.51-1.16,4.82,4.82,0,0,1,3.36,1.12,4.6,4.6,0,0,1,1.4,3.16H92.24a2.11,2.11,0,0,0-.6-1.52,2.9,2.9,0,0,0-3.18,0,1.71,1.71,0,0,0-.55,1.35,1.52,1.52,0,0,0,.48,1.18,3.08,3.08,0,0,0,1.5.63l1.52.27q3.7.66,3.7,4a4.07,4.07,0,0,1-1.38,3.31A5.7,5.7,0,0,1,90,196.32a5.2,5.2,0,0,1-3.59-1.15A4.72,4.72,0,0,1,85,191.83Z"/><path class="cls-1" d="M102.37,184.22v12H99.63v-12H96v-2.37H106v2.37Z"/><path class="cls-1" d="M106.57,187.36c0-3.82,1.74-5.72,5.22-5.72a5.21,5.21,0,0,1,3.79,1.34c.93.89,1.39,2.35,1.39,4.38v3.28c0,2-.47,3.49-1.42,4.38a5.35,5.35,0,0,1-3.84,1.34c-3.42,0-5.14-1.9-5.14-5.72Zm7.68,3.24v-3.1a4.57,4.57,0,0,0-.6-2.65,2.15,2.15,0,0,0-1.86-.82,2.19,2.19,0,0,0-1.89.8,4.63,4.63,0,0,0-.58,2.67v3.1a4.32,4.32,0,0,0,.58,2.55,2.62,2.62,0,0,0,3.75,0A4.27,4.27,0,0,0,114.25,190.6Z"/><path class="cls-1" d="M129.77,196.2H127l-5.28-9v9H119V181.85h2.72l5.28,9v-9h2.73Z"/><path class="cls-1" d="M135,187.77h5.45v2.37H135v3.68h6.38v2.38h-9.11V181.85h9.11v2.37H135Z"/><path class="cls-2" d="M156.88,196.2h-2.73v-6.08h-4.76v6.08h-2.72V181.85h2.72v5.9h4.76v-5.9h2.73Z"/><path class="cls-2" d="M164.39,181.85a5.2,5.2,0,0,1,3.77,1.33c.93.88,1.39,2.34,1.39,4.36v2.94c0,2-.47,3.48-1.42,4.37a5.3,5.3,0,0,1-3.82,1.35h-5V181.85ZM166.21,193a4.24,4.24,0,0,0,.61-2.55v-2.77a4.57,4.57,0,0,0-.6-2.65,2.14,2.14,0,0,0-1.85-.82h-2.31v9.6h2.31A2.16,2.16,0,0,0,166.21,193Z"/><path class="cls-2" d="M171.11,191.83h2.58a2.41,2.41,0,0,0,.76,1.67,2.84,2.84,0,0,0,1.82.49q2.31,0,2.31-1.89a1.76,1.76,0,0,0-.46-1.3,2.68,2.68,0,0,0-1.46-.61l-1.35-.23q-3.88-.65-3.89-4a4,4,0,0,1,1.32-3.16,5.14,5.14,0,0,1,3.51-1.16,4.82,4.82,0,0,1,3.36,1.12,4.6,4.6,0,0,1,1.4,3.16h-2.62a2.11,2.11,0,0,0-.6-1.52,2.31,2.31,0,0,0-1.58-.47,2.36,2.36,0,0,0-1.61.48,1.74,1.74,0,0,0-.54,1.35,1.52,1.52,0,0,0,.48,1.18,3.08,3.08,0,0,0,1.5.63l1.52.27q3.7.66,3.7,4a4.07,4.07,0,0,1-1.38,3.31,5.72,5.72,0,0,1-3.74,1.14,5.16,5.16,0,0,1-3.59-1.15A4.72,4.72,0,0,1,171.11,191.83Z"/><path class="cls-2" d="M186.07,181.85V196.2h-2.73V181.85Z"/><path class="cls-2" d="M193.22,187.36c0-3.82,1.76-5.72,5.26-5.72a5.38,5.38,0,0,1,3.75,1.25,4.46,4.46,0,0,1,1.39,3.51v.15H200.9v-.13a2.37,2.37,0,0,0-.64-1.75,2.4,2.4,0,0,0-1.8-.64,2.2,2.2,0,0,0-1.9.81,4.65,4.65,0,0,0-.59,2.66v3.1a4.16,4.16,0,0,0,.61,2.54,2.28,2.28,0,0,0,1.93.79,2.36,2.36,0,0,0,1.77-.63,2.31,2.31,0,0,0,.62-1.7v-.17h2.68v.15a4.52,4.52,0,0,1-1.37,3.54,5.41,5.41,0,0,1-3.77,1.24c-3.48,0-5.22-1.9-5.22-5.72Z"/><path class="cls-2" d="M207.87,193.41,207,196.2h-2.87l5.1-14.35h2.22l5.12,14.35h-2.89l-.87-2.79Zm2.45-7.78-1.73,5.51h3.48Z"/><path class="cls-2" d="M227.94,186.36a4.19,4.19,0,0,1-1.26,3.19,4.77,4.77,0,0,1-3.44,1.2H220.6v5.45h-2.73V181.85h5.37a4.77,4.77,0,0,1,3.44,1.2A4.38,4.38,0,0,1,227.94,186.36Zm-2.72,0a2.15,2.15,0,0,0-.56-1.59,2.07,2.07,0,0,0-1.55-.55H220.6v4.14h2.51a2.19,2.19,0,0,0,1.54-.52A1.91,1.91,0,0,0,225.22,186.36Z"/><path class="cls-2" d="M229,191.83h2.58a2.41,2.41,0,0,0,.76,1.67,2.84,2.84,0,0,0,1.82.49q2.31,0,2.31-1.89a1.72,1.72,0,0,0-.46-1.3,2.68,2.68,0,0,0-1.46-.61l-1.35-.23q-3.89-.65-3.89-4a4,4,0,0,1,1.32-3.16,5.14,5.14,0,0,1,3.51-1.16,4.82,4.82,0,0,1,3.36,1.12,4.6,4.6,0,0,1,1.4,3.16h-2.62a2.11,2.11,0,0,0-.6-1.52,2.9,2.9,0,0,0-3.18,0,1.71,1.71,0,0,0-.55,1.35,1.52,1.52,0,0,0,.48,1.18,3.08,3.08,0,0,0,1.5.63l1.52.27q3.71.66,3.7,4a4.07,4.07,0,0,1-1.38,3.31,5.7,5.7,0,0,1-3.74,1.14,5.2,5.2,0,0,1-3.59-1.15A4.72,4.72,0,0,1,229,191.83Z"/><path class="cls-2" d="M246.37,184.22v12h-2.74v-12H240v-2.37H250v2.37Z"/><path class="cls-2" d="M250.57,187.36c0-3.82,1.74-5.72,5.22-5.72a5.21,5.21,0,0,1,3.79,1.34c.93.89,1.39,2.35,1.39,4.38v3.28c0,2-.47,3.49-1.42,4.38a5.35,5.35,0,0,1-3.84,1.34c-3.42,0-5.14-1.9-5.14-5.72Zm7.68,3.24v-3.1a4.57,4.57,0,0,0-.6-2.65,2.15,2.15,0,0,0-1.86-.82,2.19,2.19,0,0,0-1.89.8,4.63,4.63,0,0,0-.58,2.67v3.1a4.32,4.32,0,0,0,.58,2.55,2.62,2.62,0,0,0,3.75,0A4.27,4.27,0,0,0,258.25,190.6Z"/><path class="cls-2" d="M273.77,196.2H271l-5.28-9v9H263V181.85h2.72l5.28,9v-9h2.73Z"/><path class="cls-2" d="M279,187.77h5.45v2.37H279v3.68h6.38v2.38h-9.11V181.85h9.11v2.37H279Z"/><path class="cls-2" d="M12.88,214.2H10.15v-6.08H5.39v6.08H2.67V199.85H5.39v5.9h4.76v-5.9h2.73Z"/><path class="cls-2" d="M20.39,199.85a5.2,5.2,0,0,1,3.77,1.33c.93.88,1.39,2.34,1.39,4.36v2.94c0,2-.47,3.48-1.42,4.37a5.3,5.3,0,0,1-3.82,1.35h-5V199.85ZM22.21,211a4.24,4.24,0,0,0,.61-2.55v-2.77a4.57,4.57,0,0,0-.6-2.65,2.14,2.14,0,0,0-1.85-.82H18.06v9.6h2.31A2.16,2.16,0,0,0,22.21,211Z"/><path class="cls-2" d="M27.11,209.83h2.58a2.41,2.41,0,0,0,.76,1.67,2.84,2.84,0,0,0,1.82.49q2.31,0,2.31-1.89a1.76,1.76,0,0,0-.46-1.3,2.68,2.68,0,0,0-1.46-.61L31.31,208q-3.89-.65-3.89-4a4,4,0,0,1,1.32-3.16,5.14,5.14,0,0,1,3.51-1.16,4.82,4.82,0,0,1,3.36,1.12,4.6,4.6,0,0,1,1.4,3.16H34.39a2.11,2.11,0,0,0-.6-1.52,2.31,2.31,0,0,0-1.58-.47,2.36,2.36,0,0,0-1.61.48,1.74,1.74,0,0,0-.54,1.35,1.52,1.52,0,0,0,.48,1.18,3.08,3.08,0,0,0,1.5.63l1.52.27q3.7.66,3.7,4a4.07,4.07,0,0,1-1.38,3.31,5.72,5.72,0,0,1-3.74,1.14,5.16,5.16,0,0,1-3.59-1.15A4.72,4.72,0,0,1,27.11,209.83Z"/><path class="cls-2" d="M42.07,199.85V214.2H39.34V199.85Z"/><path class="cls-2" d="M49.22,205.36c0-3.82,1.76-5.72,5.26-5.72a5.38,5.38,0,0,1,3.75,1.25,4.46,4.46,0,0,1,1.39,3.51v.15H56.9v-.13a2.37,2.37,0,0,0-.64-1.75,2.4,2.4,0,0,0-1.8-.64,2.2,2.2,0,0,0-1.9.81A4.65,4.65,0,0,0,52,205.5v3.1a4.16,4.16,0,0,0,.61,2.54,2.28,2.28,0,0,0,1.93.79,2.36,2.36,0,0,0,1.77-.63,2.31,2.31,0,0,0,.62-1.7v-.17h2.68v.15a4.52,4.52,0,0,1-1.37,3.54,5.41,5.41,0,0,1-3.77,1.24c-3.48,0-5.22-1.9-5.22-5.72Z"/><path class="cls-2" d="M63.87,211.41,63,214.2H60.12l5.1-14.35h2.22l5.12,14.35H69.67l-.87-2.79Zm2.45-7.78-1.73,5.51h3.48Z"/><path class="cls-2" d="M83.94,204.36a4.19,4.19,0,0,1-1.26,3.19,4.77,4.77,0,0,1-3.44,1.2H76.6v5.45H73.87V199.85h5.37a4.77,4.77,0,0,1,3.44,1.2A4.38,4.38,0,0,1,83.94,204.36Zm-2.72,0a2.15,2.15,0,0,0-.56-1.59,2.07,2.07,0,0,0-1.55-.55H76.6v4.14h2.51a2.19,2.19,0,0,0,1.54-.52A1.91,1.91,0,0,0,81.22,204.36Z"/><path class="cls-2" d="M85,209.83h2.58a2.41,2.41,0,0,0,.76,1.67,2.84,2.84,0,0,0,1.82.49q2.31,0,2.31-1.89a1.72,1.72,0,0,0-.46-1.3,2.68,2.68,0,0,0-1.46-.61L89.16,208q-3.89-.65-3.89-4a4,4,0,0,1,1.32-3.16,5.14,5.14,0,0,1,3.51-1.16,4.82,4.82,0,0,1,3.36,1.12,4.6,4.6,0,0,1,1.4,3.16H92.24a2.11,2.11,0,0,0-.6-1.52,2.9,2.9,0,0,0-3.18,0,1.71,1.71,0,0,0-.55,1.35,1.52,1.52,0,0,0,.48,1.18,3.08,3.08,0,0,0,1.5.63l1.52.27q3.7.66,3.7,4a4.07,4.07,0,0,1-1.38,3.31A5.7,5.7,0,0,1,90,214.32a5.2,5.2,0,0,1-3.59-1.15A4.72,4.72,0,0,1,85,209.83Z"/><path class="cls-2" d="M102.37,202.22v12H99.63v-12H96v-2.37H106v2.37Z"/><path class="cls-2" d="M106.57,205.36c0-3.82,1.74-5.72,5.22-5.72a5.21,5.21,0,0,1,3.79,1.34c.93.89,1.39,2.35,1.39,4.38v3.28c0,2-.47,3.49-1.42,4.38a5.35,5.35,0,0,1-3.84,1.34c-3.42,0-5.14-1.9-5.14-5.72Zm7.68,3.24v-3.1a4.57,4.57,0,0,0-.6-2.65,2.15,2.15,0,0,0-1.86-.82,2.19,2.19,0,0,0-1.89.8,4.63,4.63,0,0,0-.58,2.67v3.1a4.32,4.32,0,0,0,.58,2.55,2.62,2.62,0,0,0,3.75,0A4.27,4.27,0,0,0,114.25,208.6Z"/><path class="cls-2" d="M129.77,214.2H127l-5.28-9v9H119V199.85h2.72l5.28,9v-9h2.73Z"/><path class="cls-2" d="M135,205.77h5.45v2.37H135v3.68h6.38v2.38h-9.11V199.85h9.11v2.37H135Z"/><path class="cls-1" d="M156.88,214.2h-2.73v-6.08h-4.76v6.08h-2.72V199.85h2.72v5.9h4.76v-5.9h2.73Z"/><path class="cls-1" d="M164.39,199.85a5.2,5.2,0,0,1,3.77,1.33c.93.88,1.39,2.34,1.39,4.36v2.94c0,2-.47,3.48-1.42,4.37a5.3,5.3,0,0,1-3.82,1.35h-5V199.85ZM166.21,211a4.24,4.24,0,0,0,.61-2.55v-2.77a4.57,4.57,0,0,0-.6-2.65,2.14,2.14,0,0,0-1.85-.82h-2.31v9.6h2.31A2.16,2.16,0,0,0,166.21,211Z"/><path class="cls-1" d="M171.11,209.83h2.58a2.41,2.41,0,0,0,.76,1.67,2.84,2.84,0,0,0,1.82.49q2.31,0,2.31-1.89a1.76,1.76,0,0,0-.46-1.3,2.68,2.68,0,0,0-1.46-.61l-1.35-.23q-3.88-.65-3.89-4a4,4,0,0,1,1.32-3.16,5.14,5.14,0,0,1,3.51-1.16,4.82,4.82,0,0,1,3.36,1.12,4.6,4.6,0,0,1,1.4,3.16h-2.62a2.11,2.11,0,0,0-.6-1.52,2.31,2.31,0,0,0-1.58-.47,2.36,2.36,0,0,0-1.61.48,1.74,1.74,0,0,0-.54,1.35,1.52,1.52,0,0,0,.48,1.18,3.08,3.08,0,0,0,1.5.63l1.52.27q3.7.66,3.7,4a4.07,4.07,0,0,1-1.38,3.31,5.72,5.72,0,0,1-3.74,1.14,5.16,5.16,0,0,1-3.59-1.15A4.72,4.72,0,0,1,171.11,209.83Z"/><path class="cls-1" d="M186.07,199.85V214.2h-2.73V199.85Z"/><path class="cls-1" d="M193.22,205.36c0-3.82,1.76-5.72,5.26-5.72a5.38,5.38,0,0,1,3.75,1.25,4.46,4.46,0,0,1,1.39,3.51v.15H200.9v-.13a2.37,2.37,0,0,0-.64-1.75,2.4,2.4,0,0,0-1.8-.64,2.2,2.2,0,0,0-1.9.81,4.65,4.65,0,0,0-.59,2.66v3.1a4.16,4.16,0,0,0,.61,2.54,2.28,2.28,0,0,0,1.93.79,2.36,2.36,0,0,0,1.77-.63,2.31,2.31,0,0,0,.62-1.7v-.17h2.68v.15a4.52,4.52,0,0,1-1.37,3.54,5.41,5.41,0,0,1-3.77,1.24c-3.48,0-5.22-1.9-5.22-5.72Z"/><path class="cls-1" d="M207.87,211.41,207,214.2h-2.87l5.1-14.35h2.22l5.12,14.35h-2.89l-.87-2.79Zm2.45-7.78-1.73,5.51h3.48Z"/><path class="cls-1" d="M227.94,204.36a4.19,4.19,0,0,1-1.26,3.19,4.77,4.77,0,0,1-3.44,1.2H220.6v5.45h-2.73V199.85h5.37a4.77,4.77,0,0,1,3.44,1.2A4.38,4.38,0,0,1,227.94,204.36Zm-2.72,0a2.15,2.15,0,0,0-.56-1.59,2.07,2.07,0,0,0-1.55-.55H220.6v4.14h2.51a2.19,2.19,0,0,0,1.54-.52A1.91,1.91,0,0,0,225.22,204.36Z"/><path class="cls-1" d="M229,209.83h2.58a2.41,2.41,0,0,0,.76,1.67,2.84,2.84,0,0,0,1.82.49q2.31,0,2.31-1.89a1.72,1.72,0,0,0-.46-1.3,2.68,2.68,0,0,0-1.46-.61l-1.35-.23q-3.89-.65-3.89-4a4,4,0,0,1,1.32-3.16,5.14,5.14,0,0,1,3.51-1.16,4.82,4.82,0,0,1,3.36,1.12,4.6,4.6,0,0,1,1.4,3.16h-2.62a2.11,2.11,0,0,0-.6-1.52,2.9,2.9,0,0,0-3.18,0,1.71,1.71,0,0,0-.55,1.35,1.52,1.52,0,0,0,.48,1.18,3.08,3.08,0,0,0,1.5.63l1.52.27q3.71.66,3.7,4a4.07,4.07,0,0,1-1.38,3.31,5.7,5.7,0,0,1-3.74,1.14,5.2,5.2,0,0,1-3.59-1.15A4.72,4.72,0,0,1,229,209.83Z"/><path class="cls-1" d="M246.37,202.22v12h-2.74v-12H240v-2.37H250v2.37Z"/><path class="cls-1" d="M250.57,205.36c0-3.82,1.74-5.72,5.22-5.72a5.21,5.21,0,0,1,3.79,1.34c.93.89,1.39,2.35,1.39,4.38v3.28c0,2-.47,3.49-1.42,4.38a5.35,5.35,0,0,1-3.84,1.34c-3.42,0-5.14-1.9-5.14-5.72Zm7.68,3.24v-3.1a4.57,4.57,0,0,0-.6-2.65,2.15,2.15,0,0,0-1.86-.82,2.19,2.19,0,0,0-1.89.8,4.63,4.63,0,0,0-.58,2.67v3.1a4.32,4.32,0,0,0,.58,2.55,2.62,2.62,0,0,0,3.75,0A4.27,4.27,0,0,0,258.25,208.6Z"/><path class="cls-1" d="M273.77,214.2H271l-5.28-9v9H263V199.85h2.72l5.28,9v-9h2.73Z"/><path class="cls-1" d="M279,205.77h5.45v2.37H279v3.68h6.38v2.38h-9.11V199.85h9.11v2.37H279Z"/></svg>