<svg xmlns="http://www.w3.org/2000/svg" viewBox="0 0 720 720"><defs><style>.cls-1{fill:#fff;}.cls-1,.cls-2,.cls-6,.cls-7{stroke:#231f20;}.cls-1,.cls-2,.cls-3,.cls-6,.cls-7{stroke-miterlimit:10;}.cls-2,.cls-3,.cls-6,.cls-7{fill:none;}.cls-3{stroke:#f68e69;}.cls-4{fill:#231f20;}.cls-5{fill:#f68e69;}.cls-6{stroke-dasharray:7.06 7.06;}.cls-7{stroke-dasharray:7.07 7.07;}</style></defs><g id="Layer_1" data-name="Layer 1"><line class="cls-1" x1="68.41" y1="291.96" x2="146.17" y2="58.69"/><line class="cls-2" x1="146.17" y1="291.96" x2="68.41" y2="291.96"/><line class="cls-2" x1="146.17" y1="214.21" x2="68.41" y2="291.96"/><line class="cls-2" x1="146.17" y1="136.45" x2="68.41" y2="291.96"/><line class="cls-2" x1="68.41" y1="214.21" x2="68.41" y2="291.96"/><line class="cls-2" x1="68.41" y1="58.69" x2="68.41" y2="136.45"/><line class="cls-2" x1="146.17" y1="58.69" x2="68.41" y2="58.69"/><line class="cls-2" x1="146.17" y1="136.45" x2="68.41" y2="58.69"/><line class="cls-2" x1="146.17" y1="214.21" x2="68.41" y2="58.69"/><line class="cls-2" x1="146.17" y1="291.96" x2="68.41" y2="58.69"/><line class="cls-2" x1="68.41" y1="136.45" x2="146.17" y2="136.45"/><line class="cls-2" x1="146.17" y1="58.69" x2="68.41" y2="136.45"/><line class="cls-2" x1="68.41" y1="214.21" x2="146.17" y2="58.69"/><line class="cls-2" x1="146.17" y1="214.21" x2="68.41" y2="136.45"/><line class="cls-2" x1="146.17" y1="136.45" x2="146.17" y2="214.21"/><line class="cls-2" x1="146.17" y1="58.69" x2="146.17" y2="136.45"/><line class="cls-2" x1="68.41" y1="136.45" x2="68.41" y2="214.21"/><line class="cls-2" x1="146.17" y1="214.21" x2="146.17" y2="291.96"/><line class="cls-2" x1="68.41" y1="214.21" x2="146.17" y2="291.96"/><line class="cls-1" x1="573.83" y1="291.96" x2="651.59" y2="58.69"/><line class="cls-2" x1="651.59" y1="291.96" x2="573.83" y2="291.96"/><line class="cls-2" x1="651.59" y1="214.21" x2="573.83" y2="291.96"/><line class="cls-2" x1="651.59" y1="136.45" x2="573.83" y2="291.96"/><line class="cls-2" x1="573.83" y1="214.21" x2="573.83" y2="291.96"/><line class="cls-2" x1="573.83" y1="58.69" x2="573.83" y2="136.45"/><line class="cls-2" x1="651.59" y1="58.69" x2="573.83" y2="58.69"/><line class="cls-2" x1="651.59" y1="136.45" x2="573.83" y2="58.69"/><line class="cls-2" x1="651.59" y1="214.21" x2="573.83" y2="58.69"/><line class="cls-2" x1="651.59" y1="291.96" x2="573.83" y2="58.69"/><line class="cls-2" x1="573.83" y1="136.45" x2="651.59" y2="136.45"/><line class="cls-2" x1="651.59" y1="58.69" x2="573.83" y2="136.45"/><line class="cls-2" x1="573.83" y1="214.21" x2="651.59" y2="58.69"/><line class="cls-2" x1="651.59" y1="214.21" x2="573.83" y2="136.45"/><line class="cls-2" x1="651.59" y1="136.45" x2="651.59" y2="214.21"/><line class="cls-2" x1="651.59" y1="58.69" x2="651.59" y2="136.45"/><line class="cls-2" x1="573.83" y1="136.45" x2="573.83" y2="214.21"/><line class="cls-2" x1="651.59" y1="214.21" x2="651.59" y2="291.96"/><line class="cls-2" x1="573.83" y1="214.21" x2="651.59" y2="291.96"/><line class="cls-1" x1="573.83" y1="642.48" x2="651.59" y2="409.21"/><line class="cls-2" x1="651.59" y1="642.48" x2="573.83" y2="642.48"/><line class="cls-2" x1="651.59" y1="564.73" x2="573.83" y2="642.48"/><line class="cls-2" x1="651.59" y1="486.97" x2="573.83" y2="642.48"/><line class="cls-2" x1="573.83" y1="564.73" x2="573.83" y2="642.48"/><line class="cls-2" x1="573.83" y1="409.21" x2="573.83" y2="486.97"/><line class="cls-2" x1="651.59" y1="409.21" x2="573.83" y2="409.21"/><line class="cls-2" x1="651.59" y1="486.97" x2="573.83" y2="409.21"/><line class="cls-2" x1="651.59" y1="564.73" x2="573.83" y2="409.21"/><line class="cls-2" x1="651.59" y1="642.48" x2="573.83" y2="409.21"/><line class="cls-2" x1="573.83" y1="486.97" x2="651.59" y2="486.97"/><line class="cls-2" x1="651.59" y1="409.21" x2="573.83" y2="486.97"/><line class="cls-2" x1="573.83" y1="564.73" x2="651.59" y2="409.21"/><line class="cls-2" x1="651.59" y1="564.73" x2="573.83" y2="486.97"/><line class="cls-2" x1="651.59" y1="486.97" x2="651.59" y2="564.73"/><line class="cls-2" x1="651.59" y1="409.21" x2="651.59" y2="486.97"/><line class="cls-2" x1="573.83" y1="486.97" x2="573.83" y2="564.73"/><line class="cls-2" x1="651.59" y1="564.73" x2="651.59" y2="642.48"/><line class="cls-2" x1="573.83" y1="564.73" x2="651.59" y2="642.48"/><line class="cls-1" x1="67.8" y1="642.48" x2="145.55" y2="409.21"/><line class="cls-2" x1="145.55" y1="642.48" x2="67.8" y2="642.48"/><line class="cls-2" x1="145.55" y1="564.73" x2="67.8" y2="642.48"/><line class="cls-2" x1="145.55" y1="486.97" x2="67.8" y2="642.48"/><line class="cls-2" x1="67.8" y1="564.73" x2="67.8" y2="642.48"/><line class="cls-2" x1="67.8" y1="409.21" x2="67.8" y2="486.97"/><line class="cls-2" x1="145.55" y1="409.21" x2="67.8" y2="409.21"/><line class="cls-2" x1="145.55" y1="486.97" x2="67.8" y2="409.21"/><line class="cls-2" x1="145.55" y1="564.73" x2="67.8" y2="409.21"/><line class="cls-2" x1="145.55" y1="642.48" x2="67.8" y2="409.21"/><line class="cls-2" x1="67.8" y1="486.97" x2="145.55" y2="486.97"/><line class="cls-2" x1="145.55" y1="409.21" x2="67.8" y2="486.97"/><line class="cls-2" x1="67.8" y1="564.73" x2="145.55" y2="409.21"/><line class="cls-2" x1="145.55" y1="564.73" x2="67.8" y2="486.97"/><line class="cls-2" x1="145.55" y1="486.97" x2="145.55" y2="564.73"/><line class="cls-2" x1="145.55" y1="409.21" x2="145.55" y2="486.97"/><line class="cls-2" x1="67.8" y1="486.97" x2="67.8" y2="564.73"/><line class="cls-2" x1="145.55" y1="564.73" x2="145.55" y2="642.48"/><line class="cls-2" x1="67.8" y1="564.73" x2="145.55" y2="642.48"/><line class="cls-3" x1="573.83" y1="291.96" x2="146.17" y2="408.6"/><line class="cls-3" x1="573.83" y1="214.21" x2="146.17" y2="214.21"/><line class="cls-3" x1="573.83" y1="408.6" x2="146.17" y2="214.21"/><line class="cls-3" x1="651.59" y1="408.6" x2="651.59" y2="291.96"/><line class="cls-3" x1="651.59" y1="486.35" x2="146.17" y2="136.45"/><line class="cls-3" x1="573.83" y1="564.11" x2="146.17" y2="486.35"/><line class="cls-3" x1="146.17" y1="564.11" x2="573.83" y2="408.6"/><line class="cls-3" x1="573.83" y1="486.35" x2="68.41" y2="564.11"/><line class="cls-3" x1="146.17" y1="641.87" x2="573.83" y2="641.87"/><line class="cls-3" x1="68.41" y1="136.45" x2="651.59" y2="58.69"/></g><g id="Layer_3" data-name="Layer 3"><path class="cls-4" d="M208.62,24.71V39.25h-2.76V24.71Z"/><path class="cls-4" d="M222.1,39.25h-2.76L214,30.17v9.08h-2.76V24.71H214l5.35,9.11V24.71h2.76Z"/><path class="cls-4" d="M230.09,30.76v2.42h-5.8V30.76Z"/><path class="cls-4" d="M232.09,30.3q0-5.81,5.33-5.8a5.52,5.52,0,0,1,3.8,1.26,4.38,4.38,0,0,1,1.41,3.46v.15h-2.76v-.15a2.23,2.23,0,0,0-.65-1.64,2.4,2.4,0,0,0-1.82-.65,2.23,2.23,0,0,0-1.93.82,4.63,4.63,0,0,0-.6,2.69v3.14a4.11,4.11,0,0,0,.65,2.59,2.42,2.42,0,0,0,2,.79,2.33,2.33,0,0,0,1.84-.66,2.87,2.87,0,0,0,.58-2v-.69h-2.57V31.35h5.27v2.49q0,5.58-5.25,5.58t-5.29-5.79Z"/><path class="cls-4" d="M247.47,33.35v5.9h-2.76V24.71h5.52a4.83,4.83,0,0,1,3.4,1.17,4.12,4.12,0,0,1,1.26,3.17,4.28,4.28,0,0,1-.66,2.43,3.82,3.82,0,0,1-1.91,1.45l3.16,6.32H252.3l-2.76-5.9Zm2.62-2.29a2.09,2.09,0,0,0,1.5-.52,2,2,0,0,0,.54-1.49,1.85,1.85,0,0,0-.55-1.41,2.05,2.05,0,0,0-1.49-.53h-2.62v3.95Z"/><path class="cls-4" d="M256.75,30.3q0-5.81,5.29-5.8a5.28,5.28,0,0,1,3.83,1.36q1.41,1.37,1.41,4.44v3.33c0,2-.48,3.53-1.44,4.43A5.43,5.43,0,0,1,262,39.42q-5.2,0-5.2-5.79Zm7.77,3.28V30.44a4.57,4.57,0,0,0-.61-2.68,2.16,2.16,0,0,0-1.87-.83,2.21,2.21,0,0,0-1.92.81,4.65,4.65,0,0,0-.59,2.7v3.14a4.36,4.36,0,0,0,.59,2.59A2.25,2.25,0,0,0,262,37a2.17,2.17,0,0,0,1.87-.82A4.25,4.25,0,0,0,264.52,33.58Z"/><path class="cls-4" d="M270.25,37a4.89,4.89,0,0,1-.67-2.56V24.71h2.76v9.65a2.7,2.7,0,0,0,.65,1.93,2.37,2.37,0,0,0,1.79.69,2.41,2.41,0,0,0,1.81-.69,2.66,2.66,0,0,0,.66-1.93V24.71H280v9.74a4.9,4.9,0,0,1-.68,2.56,4.74,4.74,0,0,1-1.88,1.75,5.77,5.77,0,0,1-2.69.62,5.7,5.7,0,0,1-2.66-.62A4.71,4.71,0,0,1,270.25,37Z"/><path class="cls-4" d="M292.72,29.29a4.26,4.26,0,0,1-1.28,3.23A4.83,4.83,0,0,1,288,33.73h-2.68v5.52h-2.76V24.71H288a4.84,4.84,0,0,1,3.48,1.22A4.45,4.45,0,0,1,292.72,29.29Zm-2.76,0a2.21,2.21,0,0,0-.56-1.62,2.14,2.14,0,0,0-1.57-.56h-2.55v4.2h2.55a2.22,2.22,0,0,0,1.56-.53A1.93,1.93,0,0,0,290,29.29Z"/><path class="cls-4" d="M301.84,30.72h5.52v2.4h-5.52v3.73h6.47v2.4h-9.23V24.71h9.23v2.4h-6.47Z"/><path class="cls-4" d="M315.41,24.71a5.3,5.3,0,0,1,3.83,1.35c.93.9,1.4,2.38,1.4,4.43v3c0,2-.48,3.53-1.43,4.43a5.4,5.4,0,0,1-3.88,1.36h-5V24.71ZM317.26,36a4.35,4.35,0,0,0,.62-2.59V30.63a4.65,4.65,0,0,0-.61-2.68,2.18,2.18,0,0,0-1.88-.84h-2.34v9.74h2.34A2.2,2.2,0,0,0,317.26,36Z"/><path class="cls-4" d="M322.75,30.3c0-3.87,1.77-5.8,5.33-5.8a5.49,5.49,0,0,1,3.79,1.26,4.38,4.38,0,0,1,1.41,3.46v.15h-2.76v-.15a2.22,2.22,0,0,0-.64-1.64,2.43,2.43,0,0,0-1.82-.65,2.22,2.22,0,0,0-1.93.82,4.63,4.63,0,0,0-.6,2.69v3.14a4.12,4.12,0,0,0,.64,2.59,2.43,2.43,0,0,0,2,.79A2.36,2.36,0,0,0,330,36.3a2.93,2.93,0,0,0,.57-2v-.69H328V31.35h5.27v2.49q0,5.58-5.24,5.58t-5.29-5.79Z"/><path class="cls-4" d="M338.13,30.72h5.52v2.4h-5.52v3.73h6.47v2.4h-9.23V24.71h9.23v2.4h-6.47Z"/><path class="cls-4" d="M345.86,34.83h2.62a2.42,2.42,0,0,0,.76,1.69,2.94,2.94,0,0,0,1.85.5q2.34,0,2.34-1.92a1.79,1.79,0,0,0-.47-1.32,2.71,2.71,0,0,0-1.47-.62l-1.37-.23q-3.94-.65-3.94-4.05a4,4,0,0,1,1.34-3.2,5.19,5.19,0,0,1,3.55-1.18,4.85,4.85,0,0,1,3.4,1.14,4.63,4.63,0,0,1,1.42,3.2h-2.65a2.17,2.17,0,0,0-.61-1.54,2.93,2.93,0,0,0-3.23,0,1.78,1.78,0,0,0-.55,1.36,1.58,1.58,0,0,0,.49,1.21,3.12,3.12,0,0,0,1.52.63l1.54.27q3.75.67,3.75,4.09a4.08,4.08,0,0,1-1.41,3.35A5.75,5.75,0,0,1,351,39.38a5.26,5.26,0,0,1-3.64-1.17A4.77,4.77,0,0,1,345.86,34.83Z"/><path class="cls-4" d="M365.63,24.71V39.25h-2.76V24.71Z"/><path class="cls-4" d="M379.11,39.25h-2.76L371,30.17v9.08h-2.76V24.71H371l5.35,9.11V24.71h2.76Z"/><path class="cls-4" d="M396.52,35.08a4,4,0,0,1-1.18,3.08,4.65,4.65,0,0,1-3.29,1.09h-5.83V24.71h5.6a4.8,4.8,0,0,1,3.32,1.06,3.79,3.79,0,0,1,1.19,3,3.44,3.44,0,0,1-.48,1.78,3.21,3.21,0,0,1-1.35,1.23,3.29,3.29,0,0,1,1.5,1.29A3.73,3.73,0,0,1,396.52,35.08ZM389,30.65h2.63a2.07,2.07,0,0,0,1.44-.45,1.63,1.63,0,0,0,.5-1.27,1.77,1.77,0,0,0-.5-1.35,2,2,0,0,0-1.44-.47H389Zm4.78,4.24a1.8,1.8,0,0,0-.5-1.35,2,2,0,0,0-1.48-.48H389v3.79h2.8a1.93,1.93,0,0,0,1.48-.52A2,2,0,0,0,393.76,34.89Z"/><path class="cls-4" d="M401.37,24.71V36.85h6.36v2.4h-9.12V24.71Z"/><path class="cls-4" d="M412.11,36.43l-.88,2.82h-2.91l5.16-14.54h2.26l5.18,14.54H418l-.88-2.82Zm2.49-7.88-1.75,5.58h3.52Z"/><path class="cls-4" d="M421.53,30.3q0-5.81,5.34-5.8a5.45,5.45,0,0,1,3.79,1.27,4.53,4.53,0,0,1,1.41,3.56v.15h-2.76v-.13a2.39,2.39,0,0,0-.64-1.77,2.44,2.44,0,0,0-1.83-.65,2.21,2.21,0,0,0-1.92.82,4.63,4.63,0,0,0-.6,2.69v3.14a4.17,4.17,0,0,0,.62,2.57,2.29,2.29,0,0,0,1.95.81,2.44,2.44,0,0,0,1.8-.64,2.35,2.35,0,0,0,.62-1.72v-.17H432v.14a4.63,4.63,0,0,1-1.39,3.6,5.53,5.53,0,0,1-3.82,1.25c-3.52,0-5.29-1.93-5.29-5.79Z"/><path class="cls-4" d="M436.92,35.19v4.06h-2.76V24.71h2.76V31.5l5-6.79h3.31l-4.66,5.84,5,8.7h-3.2l-3.61-6.47Z"/><path class="cls-5" d="M205.54,55.58q0-5.79,5.29-5.79a5.26,5.26,0,0,1,3.83,1.36c1,.9,1.42,2.38,1.42,4.43v3.33c0,2.05-.48,3.53-1.45,4.44a5.4,5.4,0,0,1-3.88,1.36q-5.2,0-5.21-5.8Zm7.78,3.29V55.73a4.71,4.71,0,0,0-.61-2.69,2.61,2.61,0,0,0-3.8,0,4.77,4.77,0,0,0-.59,2.71v3.14a4.38,4.38,0,0,0,.59,2.58,2.66,2.66,0,0,0,3.8,0A4.32,4.32,0,0,0,213.32,58.87Z"/><path class="cls-5" d="M219.05,62.3a4.92,4.92,0,0,1-.68-2.56V50h2.76v9.65a2.67,2.67,0,0,0,.66,1.93,2.33,2.33,0,0,0,1.79.68,2.37,2.37,0,0,0,1.8-.68,2.67,2.67,0,0,0,.66-1.93V50h2.79v9.74a4.84,4.84,0,0,1-.69,2.56A4.68,4.68,0,0,1,226.27,64a6,6,0,0,1-5.36,0A4.59,4.59,0,0,1,219.05,62.3Z"/><path class="cls-5" d="M236.69,52.4V64.54H233.9V52.4h-3.7V50h10.19v2.4Z"/><path class="cls-5" d="M245.81,56.05v2.42H240V56.05Z"/><path class="cls-5" d="M247.81,55.58c0-3.86,1.77-5.79,5.29-5.79a5.28,5.28,0,0,1,3.84,1.36c.94.9,1.41,2.38,1.41,4.43v3.33q0,3.08-1.44,4.44A5.44,5.44,0,0,1,253,64.71q-5.21,0-5.21-5.8Zm7.78,3.29V55.73A4.71,4.71,0,0,0,255,53a2.2,2.2,0,0,0-1.88-.83,2.23,2.23,0,0,0-1.92.81,4.77,4.77,0,0,0-.59,2.71v3.14a4.38,4.38,0,0,0,.59,2.58,2.25,2.25,0,0,0,1.92.79,2.21,2.21,0,0,0,1.88-.81A4.32,4.32,0,0,0,255.59,58.87Z"/><path class="cls-5" d="M263.2,56.13h5.54v2.4H263.2v6h-2.77V50h9.23v2.4H263.2Z"/><path class="cls-5" d="M277,56.05v2.42h-5.79V56.05Z"/><path class="cls-5" d="M279,55.58q0-5.79,5.33-5.79a5.54,5.54,0,0,1,3.8,1.25,4.41,4.41,0,0,1,1.41,3.47v.15h-2.76v-.15a2.23,2.23,0,0,0-.65-1.64,2.4,2.4,0,0,0-1.82-.66,2.26,2.26,0,0,0-1.93.82,4.69,4.69,0,0,0-.6,2.7v3.14a4.06,4.06,0,0,0,.65,2.58,2.39,2.39,0,0,0,2,.79,2.32,2.32,0,0,0,1.84-.65,2.91,2.91,0,0,0,.58-2v-.7h-2.57V56.64h5.27v2.48q0,5.6-5.25,5.59c-3.52,0-5.29-1.93-5.29-5.8Z"/><path class="cls-5" d="M294.42,58.64v5.9h-2.76V50h5.53a4.82,4.82,0,0,1,3.39,1.17,4.12,4.12,0,0,1,1.26,3.17,4.25,4.25,0,0,1-.66,2.42,3.83,3.83,0,0,1-1.91,1.46l3.16,6.32h-3.18l-2.76-5.9Zm2.62-2.3a2.08,2.08,0,0,0,1.5-.51,2,2,0,0,0,.54-1.49,1.85,1.85,0,0,0-.55-1.41A2.05,2.05,0,0,0,297,52.4h-2.62v3.94Z"/><path class="cls-5" d="M303.7,55.58q0-5.79,5.29-5.79a5.28,5.28,0,0,1,3.83,1.36c.94.9,1.41,2.38,1.41,4.43v3.33q0,3.08-1.44,4.44a5.43,5.43,0,0,1-3.89,1.36q-5.2,0-5.2-5.8Zm7.77,3.29V55.73a4.63,4.63,0,0,0-.61-2.69,2.18,2.18,0,0,0-1.87-.83,2.21,2.21,0,0,0-1.92.81,4.77,4.77,0,0,0-.59,2.71v3.14a4.38,4.38,0,0,0,.59,2.58,2.22,2.22,0,0,0,1.92.79,2.19,2.19,0,0,0,1.87-.81A4.25,4.25,0,0,0,311.47,58.87Z"/><path class="cls-5" d="M317.2,62.3a5,5,0,0,1-.67-2.56V50h2.76v9.65a2.71,2.71,0,0,0,.65,1.93,2.37,2.37,0,0,0,1.8.68,2.4,2.4,0,0,0,1.8-.68,2.67,2.67,0,0,0,.66-1.93V50H327v9.74a4.92,4.92,0,0,1-.68,2.56A4.64,4.64,0,0,1,324.42,64a6,6,0,0,1-5.35,0A4.62,4.62,0,0,1,317.2,62.3Z"/><path class="cls-5" d="M339.67,54.57a4.27,4.27,0,0,1-1.28,3.24A4.83,4.83,0,0,1,334.91,59h-2.68v5.52h-2.76V50h5.44a4.84,4.84,0,0,1,3.48,1.22A4.43,4.43,0,0,1,339.67,54.57Zm-2.76,0a2.19,2.19,0,0,0-.56-1.61,2.14,2.14,0,0,0-1.57-.56h-2.55v4.2h2.55a2.22,2.22,0,0,0,1.56-.53A1.94,1.94,0,0,0,336.91,54.57Z"/><path class="cls-5" d="M348.79,56h5.52v2.4h-5.52v3.73h6.47v2.4H346V50h9.23v2.4h-6.47Z"/><path class="cls-5" d="M362.36,50a5.3,5.3,0,0,1,3.83,1.35c.93.9,1.4,2.37,1.4,4.42v3c0,2-.48,3.52-1.43,4.43a5.4,5.4,0,0,1-3.88,1.36h-5V50Zm1.85,11.32a4.38,4.38,0,0,0,.62-2.6v-2.8a4.71,4.71,0,0,0-.61-2.69,2.2,2.2,0,0,0-1.88-.83H360v9.74h2.34A2.23,2.23,0,0,0,364.21,61.32Z"/><path class="cls-5" d="M369.7,55.58c0-3.86,1.77-5.79,5.33-5.79A5.52,5.52,0,0,1,378.82,51a4.41,4.41,0,0,1,1.41,3.47v.15h-2.76v-.15a2.22,2.22,0,0,0-.64-1.64,2.43,2.43,0,0,0-1.82-.66,2.24,2.24,0,0,0-1.93.82,4.69,4.69,0,0,0-.6,2.7v3.14a4.07,4.07,0,0,0,.64,2.58,2.4,2.4,0,0,0,2,.79,2.34,2.34,0,0,0,1.85-.65,3,3,0,0,0,.58-2v-.7H375V56.64h5.27v2.48q0,5.6-5.24,5.59t-5.29-5.8Z"/><path class="cls-5" d="M385.08,56h5.52v2.4h-5.52v3.73h6.47v2.4h-9.23V50h9.23v2.4h-6.47Z"/><path class="cls-5" d="M392.81,60.11h2.62a2.39,2.39,0,0,0,.77,1.7,2.89,2.89,0,0,0,1.84.5q2.34,0,2.34-1.92a1.76,1.76,0,0,0-.47-1.32,2.68,2.68,0,0,0-1.47-.62l-1.37-.23q-3.94-.66-3.94-4a4.06,4.06,0,0,1,1.34-3.2A5.14,5.14,0,0,1,398,49.79a4.87,4.87,0,0,1,3.4,1.14,4.61,4.61,0,0,1,1.42,3.2h-2.65a2.17,2.17,0,0,0-.61-1.54,2.93,2.93,0,0,0-3.23,0,1.76,1.76,0,0,0-.54,1.36,1.54,1.54,0,0,0,.48,1.2,2.94,2.94,0,0,0,1.52.63l1.54.28q3.75.68,3.75,4.09a4.12,4.12,0,0,1-1.4,3.35,5.8,5.8,0,0,1-3.79,1.16,5.26,5.26,0,0,1-3.64-1.17A4.78,4.78,0,0,1,392.81,60.11Z"/><path class="cls-5" d="M412.58,50V64.54h-2.76V50Z"/><path class="cls-5" d="M426.06,64.54H423.3L418,55.46v9.08h-2.76V50H418l5.35,9.1V50h2.76Z"/><path class="cls-5" d="M432.66,60.11h2.61a2.47,2.47,0,0,0,.77,1.7,2.94,2.94,0,0,0,1.85.5q2.34,0,2.34-1.92a1.76,1.76,0,0,0-.47-1.32,2.71,2.71,0,0,0-1.47-.62l-1.37-.23q-3.94-.66-3.94-4a4.05,4.05,0,0,1,1.33-3.2,5.19,5.19,0,0,1,3.56-1.18,4.87,4.87,0,0,1,3.4,1.14,4.65,4.65,0,0,1,1.42,3.2H440a2.17,2.17,0,0,0-.62-1.54,2.34,2.34,0,0,0-1.6-.48,2.36,2.36,0,0,0-1.62.49,1.77,1.77,0,0,0-.55,1.36,1.51,1.51,0,0,0,.49,1.2,2.94,2.94,0,0,0,1.51.63l1.54.28q3.75.68,3.75,4.09a4.09,4.09,0,0,1-1.4,3.35,5.75,5.75,0,0,1-3.78,1.16,5.3,5.3,0,0,1-3.65-1.17A4.77,4.77,0,0,1,432.66,60.11Z"/><path class="cls-5" d="M447.56,61.72l-.89,2.82h-2.9L448.93,50h2.25l5.19,14.54h-2.93l-.89-2.82Zm2.49-7.88-1.75,5.58h3.52Z"/><path class="cls-5" d="M460.46,50V62.14h6.36v2.4h-9.13V50Z"/><path class="cls-5" d="M481.51,64.54h-2.76V55.92L476,61.74h-1.86l-2.8-5.88v8.68h-2.76V50h2.76l3.73,8,3.69-8h2.76Z"/><path class="cls-5" d="M483.8,55.58c0-3.86,1.77-5.79,5.29-5.79a5.28,5.28,0,0,1,3.84,1.36c.94.9,1.41,2.38,1.41,4.43v3.33q0,3.08-1.44,4.44A5.44,5.44,0,0,1,489,64.71q-5.2,0-5.21-5.8Zm7.78,3.29V55.73A4.63,4.63,0,0,0,491,53a2.19,2.19,0,0,0-1.88-.83,2.23,2.23,0,0,0-1.92.81,4.77,4.77,0,0,0-.59,2.71v3.14a4.38,4.38,0,0,0,.59,2.58,2.25,2.25,0,0,0,1.92.79,2.2,2.2,0,0,0,1.88-.81A4.25,4.25,0,0,0,491.58,58.87Z"/><path class="cls-5" d="M507.3,64.54h-2.76l-5.35-9.08v9.08h-2.76V50h2.76l5.35,9.1V50h2.76Z"/><polyline class="cls-2" points="185.05 327.24 185.05 330.84 181.45 330.84"/><line class="cls-6" x1="174.38" y1="330.84" x2="36.67" y2="330.84"/><polyline class="cls-2" points="33.13 330.84 29.53 330.84 29.53 327.24"/><line class="cls-7" x1="29.53" y1="320.17" x2="29.53" y2="26.95"/><polyline class="cls-2" points="29.53 23.41 29.53 19.81 33.13 19.81"/><line class="cls-6" x1="40.2" y1="19.81" x2="177.92" y2="19.81"/><polyline class="cls-2" points="181.45 19.81 185.05 19.81 185.05 23.41"/><line class="cls-7" x1="185.05" y1="30.48" x2="185.05" y2="323.71"/><polyline class="cls-2" points="690.47 327.24 690.47 330.84 686.87 330.84"/><line class="cls-6" x1="679.8" y1="330.84" x2="542.08" y2="330.84"/><polyline class="cls-2" points="538.55 330.84 534.95 330.84 534.95 327.24"/><line class="cls-7" x1="534.95" y1="320.17" x2="534.95" y2="26.95"/><polyline class="cls-2" points="534.95 23.41 534.95 19.81 538.55 19.81"/><line class="cls-6" x1="545.62" y1="19.81" x2="683.33" y2="19.81"/><polyline class="cls-2" points="686.87 19.81 690.47 19.81 690.47 23.41"/><line class="cls-7" x1="690.47" y1="30.48" x2="690.47" y2="323.71"/><polyline class="cls-2" points="690.47 677.15 690.47 680.75 686.87 680.75"/><line class="cls-6" x1="679.8" y1="680.75" x2="542.08" y2="680.75"/><polyline class="cls-2" points="538.55 680.75 534.95 680.75 534.95 677.15"/><line class="cls-7" x1="534.95" y1="670.08" x2="534.95" y2="376.85"/><polyline class="cls-2" points="534.95 373.32 534.95 369.72 538.55 369.72"/><line class="cls-6" x1="545.62" y1="369.72" x2="683.33" y2="369.72"/><polyline class="cls-2" points="686.87 369.72 690.47 369.72 690.47 373.32"/><line class="cls-7" x1="690.47" y1="380.38" x2="690.47" y2="673.61"/><polyline class="cls-2" points="185.05 677.15 185.05 680.75 181.45 680.75"/><line class="cls-6" x1="174.38" y1="680.75" x2="36.67" y2="680.75"/><polyline class="cls-2" points="33.13 680.75 29.53 680.75 29.53 677.15"/><line class="cls-7" x1="29.53" y1="670.08" x2="29.53" y2="376.85"/><polyline class="cls-2" points="29.53 373.32 29.53 369.72 33.13 369.72"/><line class="cls-6" x1="40.2" y1="369.72" x2="177.92" y2="369.72"/><polyline class="cls-2" points="181.45 369.72 185.05 369.72 185.05 373.32"/><line class="cls-7" x1="185.05" y1="380.38" x2="185.05" y2="673.61"/><path class="cls-4" d="M30.61,691c0-4,1.83-5.94,5.47-5.94a5.59,5.59,0,0,1,3.89,1.3A4.62,4.62,0,0,1,41.42,690v.15H38.59V690a2.46,2.46,0,0,0-.66-1.81,2.49,2.49,0,0,0-1.87-.67,2.29,2.29,0,0,0-2,.84,4.77,4.77,0,0,0-.61,2.76v3.22A4.38,4.38,0,0,0,34.1,697a2.37,2.37,0,0,0,2,.82,2.46,2.46,0,0,0,1.85-.65,2.39,2.39,0,0,0,.64-1.77v-.17h2.78v.15A4.68,4.68,0,0,1,40,699.07,5.62,5.62,0,0,1,36,700.36q-5.43,0-5.43-5.94Z"/><path class="cls-4" d="M43.57,691q0-5.94,5.43-5.94a5.44,5.44,0,0,1,3.93,1.4c1,.92,1.45,2.44,1.45,4.54v3.42c0,2.1-.5,3.62-1.48,4.54a5.59,5.59,0,0,1-4,1.4q-5.34,0-5.34-5.94Zm8,3.37v-3.22a4.71,4.71,0,0,0-.63-2.75,2.23,2.23,0,0,0-1.92-.85,2.25,2.25,0,0,0-2,.83,4.86,4.86,0,0,0-.6,2.77v3.22A4.53,4.53,0,0,0,47,697a2.29,2.29,0,0,0,2,.81,2.27,2.27,0,0,0,1.92-.83A4.37,4.37,0,0,0,51.55,694.37Z"/><path class="cls-4" d="M69.78,700.19H67v-8.84l-2.83,6h-1.9l-2.88-6v8.9H56.51V685.28h2.83l3.83,8.23L67,685.28h2.83Z"/><path class="cls-4" d="M85.59,700.19H82.76v-8.84l-2.83,6H78l-2.88-6v8.9H72.32V685.28h2.83L79,693.51l3.78-8.23h2.83Z"/><path class="cls-4" d="M88.82,697.88a5,5,0,0,1-.69-2.62v-10H91v9.89a2.79,2.79,0,0,0,.67,2,2.42,2.42,0,0,0,1.84.7,2.46,2.46,0,0,0,1.85-.7,2.75,2.75,0,0,0,.68-2v-9.89h2.85v10a5,5,0,0,1-.7,2.62,4.79,4.79,0,0,1-1.93,1.8,6.19,6.19,0,0,1-5.48,0A4.7,4.7,0,0,1,88.82,697.88Z"/><path class="cls-4" d="M112.54,700.19h-2.83l-5.48-9.32v9.32h-2.84V685.28h2.84l5.48,9.33v-9.33h2.83Z"/><path class="cls-4" d="M118.05,685.28v14.91h-2.83V685.28Z"/><path class="cls-4" d="M126.23,687.74v12.45h-2.85V687.74h-3.8v-2.46H130v2.46Z"/><path class="cls-4" d="M137.42,700.19h-2.83v-6.12l-4.34-8.79h3.09l2.66,6.05,2.65-6.05h3.12l-4.35,8.77Z"/><path class="cls-4" d="M30.61,341.1c0-4,1.83-5.94,5.47-5.94A5.64,5.64,0,0,1,40,336.45a4.64,4.64,0,0,1,1.45,3.65v.15H38.59v-.12a2.31,2.31,0,0,0-2.53-2.49,2.29,2.29,0,0,0-2,.84,4.81,4.81,0,0,0-.61,2.77v3.22a4.33,4.33,0,0,0,.63,2.63,2.38,2.38,0,0,0,2,.83,2.5,2.5,0,0,0,1.85-.65,2.42,2.42,0,0,0,.64-1.77v-.18h2.78v.15A4.72,4.72,0,0,1,40,349.17,5.67,5.67,0,0,1,36,350.45q-5.43,0-5.43-5.94Z"/><path class="cls-4" d="M43.57,341.1q0-5.94,5.43-5.94a5.44,5.44,0,0,1,3.93,1.39c1,.93,1.45,2.44,1.45,4.55v3.41c0,2.1-.5,3.62-1.48,4.55a5.59,5.59,0,0,1-4,1.39q-5.34,0-5.34-5.94Zm8,3.37v-3.22a4.72,4.72,0,0,0-.63-2.76,2.23,2.23,0,0,0-1.92-.85,2.28,2.28,0,0,0-2,.83,4.9,4.9,0,0,0-.6,2.78v3.22a4.51,4.51,0,0,0,.6,2.64,2.27,2.27,0,0,0,2,.82,2.25,2.25,0,0,0,1.92-.84A4.35,4.35,0,0,0,51.55,344.47Z"/><path class="cls-4" d="M69.78,350.28H67v-8.84l-2.83,6h-1.9l-2.88-6v8.9H56.51V335.37h2.83l3.83,8.23L67,335.37h2.83Z"/><path class="cls-4" d="M85.59,350.28H82.76v-8.84l-2.83,6H78l-2.88-6v8.9H72.32V335.37h2.83L79,343.6l3.78-8.23h2.83Z"/><path class="cls-4" d="M88.82,348a5,5,0,0,1-.69-2.63v-10H91v9.9a2.75,2.75,0,0,0,.67,2,2.43,2.43,0,0,0,1.84.71,2.46,2.46,0,0,0,1.85-.71,2.71,2.71,0,0,0,.68-2v-9.9h2.85v10a5,5,0,0,1-.7,2.63,4.76,4.76,0,0,1-1.93,1.79,6.19,6.19,0,0,1-5.48,0A4.67,4.67,0,0,1,88.82,348Z"/><path class="cls-4" d="M112.54,350.28h-2.83L104.23,341v9.31h-2.84V335.37h2.84l5.48,9.34v-9.34h2.83Z"/><path class="cls-4" d="M118.05,335.37v14.91h-2.83V335.37Z"/><path class="cls-4" d="M126.23,337.83v12.45h-2.85V337.83h-3.8v-2.46H130v2.46Z"/><path class="cls-4" d="M137.42,350.28h-2.83v-6.11l-4.34-8.8h3.09l2.66,6.05,2.65-6.05h3.12l-4.35,8.77Z"/><path class="cls-4" d="M536,341.1q0-5.94,5.47-5.94a5.64,5.64,0,0,1,3.89,1.29,4.67,4.67,0,0,1,1.45,3.65v.15H544v-.12a2.48,2.48,0,0,0-.65-1.82,2.5,2.5,0,0,0-1.87-.67,2.29,2.29,0,0,0-2,.84,4.8,4.8,0,0,0-.62,2.77v3.22a4.32,4.32,0,0,0,.64,2.63,2.38,2.38,0,0,0,2,.83,2.5,2.5,0,0,0,1.85-.65,2.46,2.46,0,0,0,.63-1.77v-.18h2.79v.15a4.72,4.72,0,0,1-1.42,3.69,5.67,5.67,0,0,1-3.91,1.28q-5.43,0-5.43-5.94Z"/><path class="cls-4" d="M549,341.1q0-5.94,5.43-5.94a5.44,5.44,0,0,1,3.93,1.39c1,.93,1.44,2.44,1.44,4.55v3.41q0,3.15-1.48,4.55a5.55,5.55,0,0,1-4,1.39q-5.34,0-5.34-5.94Zm8,3.37v-3.22a4.73,4.73,0,0,0-.62-2.76,2.23,2.23,0,0,0-1.92-.85,2.28,2.28,0,0,0-2,.83,4.81,4.81,0,0,0-.61,2.78v3.22a4.43,4.43,0,0,0,.61,2.64,2.27,2.27,0,0,0,2,.82,2.25,2.25,0,0,0,1.92-.84A4.36,4.36,0,0,0,557,344.47Z"/><path class="cls-4" d="M575.2,350.28h-2.83v-8.84l-2.84,6h-1.9l-2.87-6v8.9h-2.83V335.37h2.83l3.82,8.23,3.79-8.23h2.83Z"/><path class="cls-4" d="M591,350.28h-2.83v-8.84l-2.84,6h-1.9l-2.87-6v8.9h-2.83V335.37h2.83l3.82,8.23,3.79-8.23H591Z"/><path class="cls-4" d="M594.24,348a5,5,0,0,1-.69-2.63v-10h2.83v9.9a2.7,2.7,0,0,0,.67,2,2.74,2.74,0,0,0,3.68,0,2.67,2.67,0,0,0,.69-2v-9.9h2.85v10a5,5,0,0,1-.71,2.63,4.67,4.67,0,0,1-1.92,1.79,6.21,6.21,0,0,1-5.49,0A4.71,4.71,0,0,1,594.24,348Z"/><path class="cls-4" d="M618,350.28h-2.83L609.64,341v9.31h-2.83V335.37h2.83l5.49,9.34v-9.34H618Z"/><path class="cls-4" d="M623.46,335.37v14.91h-2.83V335.37Z"/><path class="cls-4" d="M631.65,337.83v12.45H628.8V337.83H625v-2.46h10.46v2.46Z"/><path class="cls-4" d="M642.84,350.28H640v-6.11l-4.34-8.8h3.09l2.66,6.05,2.65-6.05h3.11l-4.34,8.77Z"/><path class="cls-4" d="M536,691q0-5.94,5.47-5.94a5.59,5.59,0,0,1,3.89,1.3,4.66,4.66,0,0,1,1.45,3.65v.15H544V690a2.45,2.45,0,0,0-.65-1.81,2.5,2.5,0,0,0-1.87-.67,2.29,2.29,0,0,0-2,.84,4.77,4.77,0,0,0-.62,2.76v3.22a4.38,4.38,0,0,0,.64,2.64,2.37,2.37,0,0,0,2,.82,2.46,2.46,0,0,0,1.85-.65,2.42,2.42,0,0,0,.63-1.77v-.17h2.79v.15a4.68,4.68,0,0,1-1.42,3.68,5.62,5.62,0,0,1-3.91,1.29q-5.43,0-5.43-5.94Z"/><path class="cls-4" d="M549,691q0-5.94,5.43-5.94a5.44,5.44,0,0,1,3.93,1.4c1,.92,1.44,2.44,1.44,4.54v3.42c0,2.1-.49,3.62-1.48,4.54a5.55,5.55,0,0,1-4,1.4q-5.34,0-5.34-5.94Zm8,3.37v-3.22a4.72,4.72,0,0,0-.62-2.75,2.23,2.23,0,0,0-1.92-.85,2.25,2.25,0,0,0-2,.83,4.77,4.77,0,0,0-.61,2.77v3.22a4.44,4.44,0,0,0,.61,2.65,2.29,2.29,0,0,0,2,.81,2.27,2.27,0,0,0,1.92-.83A4.37,4.37,0,0,0,557,694.37Z"/><path class="cls-4" d="M575.2,700.19h-2.83v-8.84l-2.84,6h-1.9l-2.87-6v8.9h-2.83V685.28h2.83l3.82,8.23,3.79-8.23h2.83Z"/><path class="cls-4" d="M591,700.19h-2.83v-8.84l-2.84,6h-1.9l-2.87-6v8.9h-2.83V685.28h2.83l3.82,8.23,3.79-8.23H591Z"/><path class="cls-4" d="M594.24,697.88a5,5,0,0,1-.69-2.62v-10h2.83v9.89a2.75,2.75,0,0,0,.67,2,2.77,2.77,0,0,0,3.68,0,2.71,2.71,0,0,0,.69-2v-9.89h2.85v10a4.9,4.9,0,0,1-.71,2.62,4.7,4.7,0,0,1-1.92,1.8,6.21,6.21,0,0,1-5.49,0A4.73,4.73,0,0,1,594.24,697.88Z"/><path class="cls-4" d="M618,700.19h-2.83l-5.49-9.32v9.32h-2.83V685.28h2.83l5.49,9.33v-9.33H618Z"/><path class="cls-4" d="M623.46,685.28v14.91h-2.83V685.28Z"/><path class="cls-4" d="M631.65,687.74v12.45H628.8V687.74H625v-2.46h10.46v2.46Z"/><path class="cls-4" d="M642.84,700.19H640v-6.12l-4.34-8.79h3.09l2.66,6.05,2.65-6.05h3.11l-4.34,8.77Z"/></g><g id="Layer_2" data-name="Layer 2"><circle class="cls-4" cx="67.8" cy="58.21" r="20.06"/><circle class="cls-4" cx="67.8" cy="136.45" r="20.06"/><circle class="cls-4" cx="146.17" cy="136.45" r="20.06"/><circle class="cls-4" cx="146.17" cy="214.21" r="20.06"/><circle class="cls-4" cx="68.41" cy="214.21" r="20.06"/><circle class="cls-4" cx="68.41" cy="291.96" r="20.06"/><circle class="cls-4" cx="146.79" cy="291.35" r="20.06"/><circle class="cls-4" cx="146.17" cy="58.21" r="20.06"/><circle class="cls-4" cx="573.21" cy="58.21" r="20.06"/><circle class="cls-4" cx="573.21" cy="136.45" r="20.06"/><circle class="cls-4" cx="651.59" cy="136.45" r="20.06"/><circle class="cls-4" cx="651.59" cy="214.21" r="20.06"/><circle class="cls-4" cx="573.83" cy="214.21" r="20.06"/><circle class="cls-4" cx="573.83" cy="291.96" r="20.06"/><circle class="cls-4" cx="652.2" cy="291.35" r="20.06"/><circle class="cls-4" cx="651.59" cy="58.21" r="20.06"/><circle class="cls-4" cx="573.21" cy="408.73" r="20.06"/><circle class="cls-4" cx="573.21" cy="486.97" r="20.06"/><circle class="cls-4" cx="651.59" cy="486.97" r="20.06"/><circle class="cls-4" cx="651.59" cy="564.73" r="20.06"/><circle class="cls-4" cx="573.83" cy="564.73" r="20.06"/><circle class="cls-4" cx="573.83" cy="642.48" r="20.06"/><circle class="cls-4" cx="652.2" cy="641.87" r="20.06"/><circle class="cls-4" cx="651.59" cy="408.73" r="20.06"/><circle class="cls-4" cx="67.18" cy="408.73" r="20.06"/><circle class="cls-4" cx="67.18" cy="486.97" r="20.06"/><circle class="cls-4" cx="145.55" cy="486.97" r="20.06"/><circle class="cls-4" cx="145.55" cy="564.73" r="20.06"/><circle class="cls-4" cx="67.8" cy="564.73" r="20.06"/><circle class="cls-4" cx="67.8" cy="642.48" r="20.06"/><circle class="cls-4" cx="146.17" cy="641.87" r="20.06"/><circle class="cls-4" cx="145.55" cy="408.73" r="20.06"/></g></svg>